<?xml version="1.0" standalone="no"?>
<!DOCTYPE svg PUBLIC "-//W3C//DTD SVG 20010904//EN"
 "http://www.w3.org/TR/2001/REC-SVG-20010904/DTD/svg10.dtd">
<svg version="1.0" xmlns="http://www.w3.org/2000/svg"
 width="496.000000pt" height="496.000000pt" viewBox="0 0 496.000000 496.000000"
 preserveAspectRatio="xMidYMid meet">
<metadata>
Created by potrace 1.14, written by Peter Selinger 2001-2017
</metadata>
<g transform="translate(0.000000,496.000000) scale(0.100000,-0.100000)"
fill="#000000" stroke="none">
<path d="M3045 4143 c-92 -10 -210 -61 -274 -118 -21 -19 -41 -32 -45 -30 -3
3 -4 2 -1 -1 2 -4 -9 -23 -26 -43 -45 -54 -46 -56 -54 -80 -4 -12 -10 -21 -13
-19 -4 2 -38 19 -77 38 -61 31 -79 35 -152 36 -79 2 -122 -7 -170 -34 -13 -7
-23 -10 -23 -7 0 6 -47 -34 -91 -78 -15 -15 -31 -36 -34 -47 -4 -11 -11 -20
-16 -20 -5 0 -8 -3 -7 -7 1 -5 -4 -21 -11 -38 -7 -16 -15 -45 -18 -62 -3 -18
-11 -33 -17 -33 -7 0 -6 -4 2 -9 8 -4 11 -20 9 -37 -3 -22 -9 -28 -25 -27 -16
2 -20 -1 -15 -15 3 -9 3 -14 -2 -10 -4 4 -16 -4 -27 -17 -11 -14 -27 -25 -36
-25 -13 0 -14 -2 -4 -8 9 -7 8 -13 -8 -27 -11 -10 -20 -24 -20 -32 0 -8 -5
-11 -10 -8 -6 4 -9 -3 -6 -17 2 -13 -1 -29 -6 -35 -11 -14 -42 -18 -34 -5 2 4
-4 8 -14 8 -10 0 -17 -3 -14 -7 2 -4 -3 -9 -11 -13 -8 -3 -17 -1 -20 4 -4 6
-1 10 6 10 7 0 9 3 6 7 -4 4 -20 -3 -37 -15 -16 -12 -31 -18 -34 -14 -2 4 9
17 25 27 16 11 29 25 29 32 0 7 -14 -1 -30 -17 -17 -17 -36 -30 -42 -30 -7 0
-3 -6 7 -14 21 -15 30 -50 12 -43 -7 3 -11 10 -10 16 3 10 -10 15 -29 12 -5 0
-8 4 -8 9 0 6 -5 10 -11 10 -8 0 -8 -4 -1 -13 8 -9 4 -18 -13 -33 -21 -19 -25
-19 -38 -6 -15 14 -42 8 -32 -8 3 -5 1 -11 -5 -15 -5 -3 -10 2 -10 11 0 10 -3
15 -6 11 -3 -3 -3 -15 1 -27 6 -20 7 -20 20 -3 7 10 11 21 9 25 -3 5 -1 8 4 8
8 0 51 -44 62 -63 9 -16 -29 -28 -50 -17 -11 6 -20 7 -20 2 0 -6 10 -12 23
-16 22 -6 22 -6 -5 -24 -22 -14 -25 -21 -16 -30 8 -8 8 -12 1 -12 -6 0 -16 6
-22 14 -10 11 -8 17 9 29 17 12 18 16 6 20 -10 4 -13 13 -10 24 5 15 4 16 -5
3 -6 -8 -11 -11 -11 -5 0 5 -6 3 -12 -4 -11 -10 -9 -15 5 -26 12 -8 14 -15 7
-20 -5 -3 -8 -9 -6 -13 2 -4 -2 -13 -10 -20 -8 -7 -15 -10 -15 -7 -5 20 -3 31
5 37 6 4 7 10 3 14 -8 9 -17 1 -21 -18 -2 -7 -8 -25 -14 -40 -13 -31 -33 -38
-25 -9 3 10 1 21 -4 24 -9 6 -10 -39 -1 -49 11 -11 46 19 41 35 -5 13 -3 14 7
4 11 -10 17 -9 32 3 16 16 18 15 28 -11 13 -35 4 -47 -10 -14 -10 23 -10 23
-6 1 3 -16 -3 -27 -20 -39 -14 -9 -23 -21 -21 -27 6 -14 -11 -46 -24 -46 -6 0
-6 7 1 19 12 24 13 42 1 22 -5 -7 -11 -9 -14 -4 -5 8 31 46 48 50 5 1 11 7 13
15 3 11 2 11 -6 0 -5 -8 -12 -13 -16 -13 -19 3 -29 0 -23 -6 4 -3 -2 -13 -14
-21 -15 -10 -18 -17 -10 -25 17 -17 13 -31 -4 -17 -10 9 -15 9 -15 1 0 -6 5
-11 11 -11 5 0 8 -4 5 -8 -3 -5 8 -8 24 -8 16 0 27 3 24 8 -3 4 0 8 6 8 6 0
10 -8 8 -17 -2 -12 -13 -18 -35 -18 -17 0 -35 -4 -39 -8 -5 -4 0 -5 10 -1 15
6 17 4 11 -7 -8 -12 -6 -12 8 0 10 8 20 11 23 8 3 -3 -3 -12 -15 -19 -12 -7
-21 -18 -21 -24 0 -6 -6 -17 -14 -24 -16 -12 -11 -40 6 -40 6 0 6 6 -2 14 -9
12 -8 15 9 13 14 -1 20 -6 16 -15 -3 -8 0 -10 6 -6 7 4 10 1 7 -6 -6 -19 -47
-20 -58 -1 -7 13 -9 12 -7 -6 0 -12 5 -19 11 -16 5 4 7 -1 3 -10 -4 -11 -2
-14 8 -10 8 3 12 9 9 14 -3 5 -1 9 5 9 18 0 23 -20 6 -26 -9 -4 -14 -13 -11
-21 4 -10 1 -13 -13 -8 -14 4 -23 0 -30 -14 -9 -16 -7 -21 9 -26 11 -4 18 -11
15 -16 -3 -5 2 -6 12 -3 14 4 12 0 -6 -15 -13 -12 -21 -24 -17 -28 3 -4 -1
-17 -9 -30 -9 -13 -11 -23 -5 -23 5 0 10 4 10 8 0 5 7 9 15 9 8 0 15 -4 15 -8
0 -14 -36 -28 -58 -22 l-22 5 20 25 c11 14 20 31 20 37 -1 6 -7 -1 -16 -16 -9
-17 -20 -25 -29 -22 -8 4 -12 10 -9 15 3 5 0 9 -5 9 -16 0 -13 -20 4 -26 8 -4
12 -10 10 -15 -7 -10 62 -40 83 -37 8 2 17 -2 19 -9 3 -7 -5 -10 -21 -9 -14 2
-26 0 -26 -4 0 -11 30 -21 40 -15 5 3 11 1 15 -5 3 -5 0 -11 -7 -12 -7 0 -17
-2 -23 -3 -5 -2 -17 -3 -25 -4 -12 -1 -12 -4 3 -12 9 -5 17 -15 17 -21 0 -7
-5 -6 -15 2 -10 9 -15 9 -15 1 0 -10 13 -15 33 -12 9 1 9 -13 1 -22 -12 -11
-52 23 -48 41 3 10 -4 22 -16 30 -11 7 -20 8 -20 3 0 -5 7 -11 15 -15 18 -7
20 -27 3 -24 -8 2 -13 -7 -13 -22 0 -16 5 -24 14 -22 8 2 11 -3 8 -13 -4 -8
-2 -15 4 -15 6 0 9 8 7 18 -2 9 -10 16 -16 14 -7 -1 -12 7 -12 19 0 19 1 19
33 -5 34 -26 42 -51 25 -73 -5 -7 -7 -17 -4 -22 4 -5 -2 -14 -11 -20 -10 -6
-13 -10 -8 -11 18 0 32 15 34 35 1 11 3 32 3 48 1 15 7 26 13 24 5 -2 9 -11 7
-21 -2 -9 3 -16 10 -16 10 0 10 -3 -1 -9 -8 -5 -15 -18 -16 -28 0 -10 -4 -24
-9 -31 -4 -6 -2 -12 3 -12 6 0 11 5 11 11 0 8 4 8 13 1 13 -11 29 -10 60 3 14
6 15 10 6 16 -16 10 -19 46 -3 46 6 0 11 -7 9 -16 -1 -9 1 -21 6 -26 10 -14 8
-55 -3 -49 -4 3 -8 -2 -8 -10 0 -19 -9 -20 -30 -5 -13 10 -13 10 1 6 9 -3 21
4 28 16 11 18 11 20 0 10 -7 -7 -20 -13 -29 -13 -8 0 -23 -12 -33 -25 -13 -19
-14 -23 -3 -19 10 4 14 -1 12 -19 -4 -33 -16 -49 -32 -43 -8 3 -14 1 -14 -4 0
-6 5 -10 11 -10 5 0 7 -5 4 -10 -4 -7 -14 -6 -28 1 -20 9 -20 9 -4 -4 18 -15
15 -42 -7 -50 -6 -3 -36 9 -66 27 -30 17 -71 33 -90 35 -19 2 -37 7 -40 11 -3
5 -12 5 -19 1 -7 -5 -21 -7 -30 -4 -30 8 -141 -27 -189 -59 -95 -63 -157 -168
-167 -285 -3 -46 -9 -61 -27 -73 -81 -51 -141 -162 -137 -250 5 -111 66 -202
165 -251 l66 -33 431 0 c290 0 434 -3 439 -11 5 -7 8 -6 8 2 0 13 117 12 140
-2 8 -5 11 -4 7 2 -4 6 14 10 48 10 35 -1 52 -4 48 -11 -4 -6 1 -5 10 3 14 11
17 11 17 0 0 -9 3 -10 8 -4 9 14 55 17 46 3 -4 -6 1 -6 14 1 27 14 35 14 26
-1 -5 -7 -3 -8 6 -3 20 13 93 14 108 2 9 -7 16 -7 24 1 15 15 31 16 22 1 -4
-7 1 -7 15 1 18 9 26 9 39 -2 9 -7 13 -8 9 -2 -9 16 49 24 64 10 9 -8 10 -8 6
0 -8 14 20 27 35 17 7 -3 8 -1 4 5 -4 7 3 14 19 18 14 3 25 10 25 15 0 5 7 9
16 9 8 0 13 4 9 9 -3 5 3 12 14 16 11 3 25 13 33 23 12 15 11 16 -5 3 -15 -12
-14 -7 5 22 13 20 27 36 31 37 5 0 6 -4 3 -9 -13 -20 28 -21 46 -1 11 11 24
17 30 13 8 -4 5 -9 -8 -14 -16 -6 -16 -8 -2 -8 9 -1 20 4 24 10 10 16 -17 29
-37 18 -13 -7 -21 -4 -32 11 -7 11 -16 19 -18 17 -2 -1 -1 2 3 7 5 6 14 2 23
-10 14 -18 16 -18 29 -1 13 17 32 24 22 8 -3 -5 0 -11 7 -13 17 -7 38 2 31 13
-3 5 3 9 13 10 10 0 28 2 41 5 22 4 22 3 7 -27 -9 -17 -14 -33 -11 -37 3 -3 6
1 6 9 0 12 2 11 11 -1 9 -13 10 -13 8 0 -5 51 8 62 87 73 32 5 44 2 56 -13 9
-10 14 -21 11 -24 -12 -12 8 -5 32 10 23 15 25 15 25 0 0 -9 5 -16 10 -16 7 0
7 7 0 20 -9 17 -14 18 -31 9 -20 -10 -49 2 -49 21 0 8 52 23 66 20 4 -1 10 4
14 11 6 9 14 6 32 -12 12 -14 22 -23 21 -21 -2 3 5 10 14 17 13 9 13 14 3 20
-8 5 -11 4 -6 -3 4 -7 -1 -10 -14 -9 -11 1 -20 7 -20 15 0 7 4 11 9 7 5 -3 13
0 16 5 5 8 12 6 24 -4 12 -11 21 -12 31 -5 12 8 12 9 -4 7 -10 -2 -21 4 -24
12 -3 8 -1 12 3 8 4 -4 14 0 22 8 8 8 19 12 24 9 5 -4 9 -1 9 5 0 6 5 8 10 5
6 -3 10 -1 10 5 0 6 4 9 9 6 5 -4 11 -2 13 2 4 12 156 112 169 112 6 0 7 5 4
10 -3 6 -2 10 2 10 5 0 27 18 50 39 22 22 44 37 47 34 3 -4 6 1 6 10 0 9 6 20
13 24 6 4 26 27 44 49 l32 42 -24 5 c-14 2 -25 1 -25 -2 0 -3 -23 -6 -50 -7
-28 0 -50 4 -50 9 0 5 -6 4 -14 -2 -11 -9 -15 -9 -19 1 -4 9 -6 10 -6 1 -1 -7
-8 -10 -16 -7 -11 5 -13 10 -5 19 7 8 5 12 -5 12 -7 0 -13 -5 -12 -10 1 -5 -4
-12 -12 -15 -9 -3 -12 0 -9 10 4 8 0 15 -7 15 -7 0 -11 -6 -8 -13 4 -10 -2
-11 -25 -4 -17 4 -33 6 -36 2 -3 -3 -6 0 -6 7 0 9 -9 11 -30 6 -23 -5 -32 -3
-36 10 -6 13 -9 14 -15 3 -7 -11 -11 -11 -17 0 -5 7 -13 12 -18 11 -28 -5 -44
3 -44 22 0 11 -10 30 -22 41 -16 13 -18 18 -7 15 24 -8 60 20 52 40 -4 11 -3
14 5 9 7 -4 12 -2 12 4 0 7 -6 10 -12 8 -7 -3 -13 -11 -13 -19 0 -16 -23 -33
-45 -34 -9 0 -14 -7 -12 -17 2 -10 -2 -18 -8 -18 -13 0 -13 33 1 47 6 6 18 9
27 6 9 -4 13 -2 9 4 -4 6 -4 13 0 16 5 2 1 2 -7 -1 -8 -3 -23 -4 -33 -4 -13 1
-17 -4 -13 -14 4 -10 1 -14 -6 -11 -7 2 -12 10 -10 16 1 7 -2 9 -9 5 -7 -4
-10 -2 -7 6 2 8 19 14 37 15 18 1 37 8 41 16 5 8 15 14 21 14 7 0 14 7 16 15
4 12 3 12 -5 2 -5 -8 -12 -12 -15 -10 -4 1 -14 -4 -24 -12 -10 -8 -27 -17 -38
-18 -16 -3 -17 -1 -6 12 7 8 21 18 32 21 10 4 19 14 19 23 0 13 -2 13 -14 -4
-12 -15 -18 -17 -33 -8 -10 7 -17 19 -15 29 2 9 -2 23 -9 31 -9 11 -9 18 -1
26 7 7 12 17 12 22 0 6 -7 0 -16 -12 -12 -18 -13 -26 -4 -37 7 -8 10 -20 8
-27 -3 -8 -12 0 -21 18 -14 28 -15 33 -2 44 8 7 15 20 15 29 0 10 -7 4 -19
-15 -10 -16 -18 -41 -19 -55 0 -40 -2 -49 -11 -49 -14 0 -8 75 8 93 9 11 10
17 2 17 -6 0 -11 5 -11 11 0 6 7 9 15 5 8 -3 15 -1 15 5 0 6 -8 9 -17 7 -12
-2 -17 -12 -16 -26 2 -14 -2 -20 -11 -16 -23 9 -31 -18 -11 -33 16 -11 16 -13
3 -13 -19 0 -40 24 -30 35 4 5 1 5 -7 0 -9 -5 -12 -3 -9 6 3 8 10 15 16 15 7
1 17 2 24 3 6 0 3 7 -7 15 -16 12 -17 16 -6 30 7 9 18 16 24 16 7 0 7 -4 -1
-12 -7 -7 -12 -17 -12 -22 0 -6 6 -4 13 4 15 18 43 24 52 10 3 -5 15 -10 26
-10 10 0 18 -5 17 -11 -2 -6 4 -14 12 -16 12 -4 12 -3 2 5 -8 5 -13 13 -12 18
0 5 -7 11 -17 13 -10 1 -26 10 -35 19 -14 12 -18 12 -18 1 0 -10 -4 -9 -16 3
-16 15 -18 15 -35 -5 -9 -12 -20 -19 -24 -15 -8 7 24 42 55 58 17 9 19 14 9
26 -6 8 -16 14 -22 14 -6 0 -2 -7 9 -16 17 -14 17 -15 1 -10 -10 3 -16 2 -14
-2 6 -10 -31 -43 -38 -33 -2 5 2 14 10 21 8 7 15 18 15 24 0 6 -5 3 -11 -7
-10 -18 -12 -18 -35 4 -13 12 -21 26 -18 31 3 5 14 -1 25 -13 10 -12 19 -18
19 -14 0 5 -7 17 -17 27 -9 10 -11 18 -6 18 6 0 16 -7 23 -15 7 -8 16 -12 21
-9 13 8 3 49 -11 46 -8 -2 -10 3 -6 15 6 14 5 15 -5 6 -10 -10 -9 -16 4 -31
28 -31 19 -34 -18 -6 -19 14 -35 21 -35 15 0 -6 5 -11 11 -11 5 0 7 -5 3 -11
-4 -7 -11 -6 -22 5 -13 12 -13 18 -2 31 11 13 11 18 0 28 -10 10 -12 9 -7 -5
3 -9 -1 -22 -10 -30 -15 -11 -16 -11 -10 5 3 9 2 17 -2 17 -5 0 -11 -7 -15
-15 -3 -8 -11 -15 -17 -15 -8 0 -7 5 2 17 12 14 12 16 0 9 -9 -6 -12 -5 -9 5
3 8 12 13 20 11 9 -1 21 5 28 13 10 12 16 13 29 3 14 -12 14 -11 2 5 -12 15
-11 17 10 18 19 1 20 2 6 6 -11 3 -29 -5 -43 -18 -23 -21 -26 -22 -41 -6 -9 9
-13 20 -9 24 4 4 11 1 16 -7 5 -8 11 -12 14 -9 8 8 -50 55 -62 51 -5 -1 -14 3
-18 10 -12 19 -12 49 0 45 6 -2 10 -11 8 -21 -2 -10 4 -16 15 -15 11 0 13 3 5
6 -6 2 -10 8 -7 13 3 5 -8 18 -25 30 -16 12 -30 28 -30 36 0 8 -4 14 -10 14
-5 0 -7 -7 -4 -15 5 -11 2 -13 -10 -9 -9 3 -13 10 -10 15 3 5 -3 6 -13 2 -15
-5 -16 -3 -5 8 15 16 16 29 1 29 -5 0 -8 -4 -5 -9 3 -5 -2 -15 -11 -22 -14
-12 -15 -11 -9 7 5 16 1 24 -11 29 -10 5 -21 7 -25 7 -5 -1 -8 2 -8 7 0 14 28
21 33 8 2 -6 18 -12 35 -13 32 -2 32 -1 12 16 -19 16 -36 18 -87 6 -16 -3 -20
-1 -16 9 2 8 8 14 11 13 20 -2 32 3 29 13 -1 6 4 14 11 16 8 3 10 -1 6 -11 -3
-9 -1 -16 6 -16 6 0 8 5 5 10 -12 20 8 10 31 -16 13 -14 24 -21 24 -17 -1 13
-23 37 -53 56 -38 24 -28 33 13 12 18 -9 29 -12 26 -6 -4 6 0 11 8 11 9 0 15
-6 13 -12 -1 -7 9 -14 23 -15 l25 -2 -25 7 c-15 5 -20 11 -13 15 6 4 19 4 30
1 15 -5 15 -4 3 5 -8 5 -32 8 -53 6 -32 -3 -36 -1 -26 11 8 10 8 14 0 14 -6 0
-11 -4 -11 -10 0 -5 -5 -10 -11 -10 -6 0 -8 7 -5 15 5 13 1 12 -19 -2 -24 -18
-36 -41 -14 -27 7 4 10 1 7 -6 -2 -7 -15 -15 -28 -17 -19 -3 -22 -1 -12 9 16
16 15 31 -2 25 -8 -3 -20 0 -26 8 -9 11 -6 13 17 11 15 -1 36 1 45 6 22 11 12
41 -11 33 -12 -3 -17 1 -17 15 0 11 4 20 8 20 4 0 8 8 8 19 0 15 7 18 33 17
24 -1 32 -6 32 -21 0 -10 7 -20 15 -22 9 -3 11 -1 5 4 -5 4 -11 15 -11 24 -1
14 12 16 95 15 73 -1 95 -4 93 -14 -1 -8 2 -11 8 -7 6 3 8 11 5 16 -4 5 34 8
92 7 54 -1 104 1 110 5 6 4 14 4 16 -1 3 -4 23 -6 44 -5 21 1 109 2 196 3 117
1 155 5 150 13 -4 8 -1 7 9 -1 11 -9 41 -12 97 -9 65 3 85 8 97 23 9 10 13 13
9 7 -9 -18 10 -16 28 2 8 8 17 12 19 9 10 -9 87 78 110 124 32 65 32 188 1
247 -33 61 -77 103 -140 133 l-58 27 3 70 c7 137 -45 268 -144 368 -56 56
-159 117 -229 136 -45 11 -144 19 -190 14z m179 -365 c-3 -4 -11 -5 -19 -1
-21 7 -19 12 4 10 11 0 18 -5 15 -9z m-39 -37 c3 -5 2 -12 -3 -15 -5 -3 -9 1
-9 9 0 17 3 19 12 6z m141 -3 c3 -4 -1 -5 -10 -4 -8 1 -18 5 -22 8 -3 4 1 5
10 4 8 -1 18 -5 22 -8z m121 -23 c0 -8 -4 -12 -9 -9 -5 3 -6 10 -3 15 9 13 12
11 12 -6z m-364 -10 c-3 -9 -8 -14 -10 -11 -3 3 -2 9 2 15 9 16 15 13 8 -4z
m122 -4 c-9 -8 -36 -10 -30 -2 2 4 11 8 20 8 8 0 13 -3 10 -6z m105 -1 c0 -5
-5 -10 -11 -10 -5 0 -7 5 -4 10 3 6 8 10 11 10 2 0 4 -4 4 -10z m40 0 c0 -5
-5 -10 -11 -10 -5 0 -7 5 -4 10 3 6 8 10 11 10 2 0 4 -4 4 -10z m-65 -20 c3
-5 1 -10 -4 -10 -6 0 -11 5 -11 10 0 6 2 10 4 10 3 0 8 -4 11 -10z m-79 -22
c3 -4 -1 -5 -10 -4 -8 1 -18 5 -22 8 -3 4 1 5 10 4 8 -1 18 -5 22 -8z m84 -17
c0 -6 -4 -12 -8 -15 -5 -3 -9 1 -9 9 0 8 4 15 9 15 4 0 8 -4 8 -9z m44 1 c3
-5 -1 -9 -9 -9 -8 0 -12 4 -9 9 3 4 7 8 9 8 2 0 6 -4 9 -8z m31 -1 c3 -5 2
-12 -3 -15 -5 -3 -9 1 -9 9 0 17 3 19 12 6z m45 5 c0 -3 -4 -8 -10 -11 -5 -3
-10 -1 -10 4 0 6 5 11 10 11 6 0 10 -2 10 -4z m-180 -26 c0 -5 -5 -10 -11 -10
-5 0 -7 5 -4 10 3 6 8 10 11 10 2 0 4 -4 4 -10z m-170 -14 c0 -2 -8 -10 -17
-17 -16 -13 -17 -12 -4 4 13 16 21 21 21 13z m307 -11 c0 -8 -4 -12 -9 -9 -5
3 -6 10 -3 15 9 13 12 11 12 -6z m43 11 c0 -2 -7 -7 -16 -10 -8 -3 -12 -2 -9
4 6 10 25 14 25 6z m40 0 c0 -2 -7 -7 -16 -10 -8 -3 -12 -2 -9 4 6 10 25 14
25 6z m40 -30 c0 -2 -8 -10 -17 -17 -16 -13 -17 -12 -4 4 13 16 21 21 21 13z
m-180 -36 c0 -5 -2 -10 -4 -10 -3 0 -8 5 -11 10 -3 6 -1 10 4 10 6 0 11 -4 11
-10z m-25 -28 c-3 -3 -11 0 -18 7 -9 10 -8 11 6 5 10 -3 15 -9 12 -12z m186 5
c-6 -8 -7 -18 -3 -22 4 -5 1 -5 -6 -1 -10 6 -10 11 -1 22 6 8 14 14 16 14 3 0
0 -6 -6 -13z m-126 -16 c3 -5 2 -12 -3 -15 -5 -3 -9 1 -9 9 0 17 3 19 12 6z
m85 -1 c0 -5 -2 -10 -4 -10 -3 0 -8 5 -11 10 -3 6 -1 10 4 10 6 0 11 -4 11
-10z m-220 -16 c0 -8 -19 -13 -24 -6 -3 5 1 9 9 9 8 0 15 -2 15 -3z m144 -22
c3 -5 -1 -9 -9 -9 -8 0 -12 4 -9 9 3 4 7 8 9 8 2 0 6 -4 9 -8z m76 4 c0 -3 -4
-8 -10 -11 -5 -3 -10 -1 -10 4 0 6 5 11 10 11 6 0 10 -2 10 -4z m40 -6 c0 -5
-5 -10 -11 -10 -5 0 -7 5 -4 10 3 6 8 10 11 10 2 0 4 -4 4 -10z m-3 -35 c0 -8
-4 -12 -9 -9 -5 3 -6 10 -3 15 9 13 12 11 12 -6z m-226 -18 c-10 -9 -11 -8 -5
6 3 10 9 15 12 12 3 -3 0 -11 -7 -18z m229 -27 c0 -5 -5 -10 -11 -10 -5 0 -7
5 -4 10 3 6 8 10 11 10 2 0 4 -4 4 -10z m-64 -42 c3 -4 -1 -5 -10 -4 -8 1 -18
5 -22 8 -3 4 1 5 10 4 8 -1 18 -5 22 -8z m60 -23 c-1 -8 -5 -17 -8 -21 -5 -4
-4 16 1 34 3 9 9 -1 7 -13z m-1696 -5 c0 -5 -4 -10 -10 -10 -5 0 -10 5 -10 10
0 6 5 10 10 10 6 0 10 -4 10 -10z m61 -5 c-1 -6 -9 -10 -19 -10 -9 0 -24 -4
-32 -10 -24 -16 -47 -15 -47 0 0 9 7 13 16 11 9 -3 27 1 41 9 27 15 42 15 41
0z m-119 -55 c5 0 19 5 30 11 15 8 19 8 14 0 -13 -20 5 -11 24 12 16 19 21 20
32 8 9 -10 9 -12 1 -7 -8 4 -13 2 -13 -6 0 -8 -14 -29 -30 -48 -35 -40 -39
-46 -63 -82 -10 -16 -14 -28 -11 -28 4 0 0 -8 -9 -18 -10 -10 -14 -22 -10 -26
4 -4 0 -4 -9 -1 -12 5 -16 2 -14 -12 2 -10 -4 -28 -12 -40 -8 -13 -11 -23 -7
-23 3 0 -2 -12 -13 -27 -11 -16 -18 -36 -17 -45 2 -10 -1 -20 -6 -24 -5 -3 -7
-10 -4 -15 4 -5 1 -9 -5 -9 -6 0 -9 -4 -5 -9 3 -5 1 -12 -4 -16 -6 -3 -8 -12
-4 -20 3 -10 -1 -15 -13 -15 -15 0 -16 2 -5 9 10 6 10 10 1 16 -8 5 -6 12 6
26 14 16 15 19 3 14 -9 -3 -22 1 -29 10 -14 16 0 21 16 5 7 -7 17 -5 30 6 17
14 17 15 1 10 -19 -6 -16 5 11 37 10 11 11 17 3 17 -9 0 -8 4 1 14 7 8 18 11
23 8 6 -3 4 2 -4 11 -9 12 -10 17 -2 17 7 0 10 4 6 9 -3 5 2 17 11 25 8 9 11
16 6 16 -5 0 -9 7 -9 15 0 9 6 14 14 11 9 -4 11 -1 7 6 -5 8 -2 9 10 5 11 -5
15 -3 10 5 -4 7 -3 8 4 4 8 -4 10 -2 6 7 -3 8 -1 18 5 21 6 4 8 14 5 24 -5 14
-4 15 5 2 7 -9 11 -10 11 -3 0 17 -14 23 -30 12 -13 -8 -13 -10 0 -19 8 -5 13
-10 10 -11 -3 0 -13 -2 -23 -4 -14 -3 -16 1 -11 18 6 22 6 22 -9 2 -8 -11 -12
-22 -9 -25 11 -8 13 -30 3 -30 -11 0 -21 38 -15 55 3 7 19 19 35 25 16 7 29
18 30 24 0 6 2 19 4 29 2 10 -1 14 -8 10 -7 -4 -8 0 -3 13 4 10 3 15 -1 10 -4
-4 -8 -22 -8 -39 0 -17 -6 -32 -12 -34 -8 -3 -10 7 -8 29 3 23 2 28 -5 18 -5
-8 -12 -12 -15 -8 -4 3 6 18 22 32 27 26 28 26 37 6 5 -11 13 -20 18 -20z
m1658 32 c0 -5 -7 -9 -15 -9 -8 0 -12 4 -9 9 3 4 9 8 15 8 5 0 9 -4 9 -8z m49
-6 c9 -11 9 -16 -1 -22 -7 -4 -10 -4 -6 1 4 4 3 14 -3 22 -6 7 -9 13 -6 13 2
0 10 -6 16 -14z m87 -32 c1 -9 0 -13 -4 -10 -3 4 -7 14 -8 22 -1 9 0 13 4 10
3 -4 7 -14 8 -22z m-41 -23 c-9 -8 -36 -10 -30 -2 2 4 11 8 20 8 8 0 13 -3 10
-6z m81 -3 c4 -7 4 -10 -1 -6 -4 4 -15 2 -24 -5 -14 -11 -14 -10 -2 6 16 20
18 21 27 5z m-246 -12 c0 -2 -8 -10 -17 -17 -16 -13 -17 -12 -4 4 13 16 21 21
21 13z m185 -26 c3 -5 1 -10 -4 -10 -6 0 -11 5 -11 10 0 6 2 10 4 10 3 0 8 -4
11 -10z m160 1 c-9 -8 -36 -10 -30 -2 2 4 11 8 20 8 8 0 13 -3 10 -6z m-2085
-16 c11 -13 10 -14 -4 -9 -9 3 -16 10 -16 15 0 13 6 11 20 -6z m2025 -24 c-9
-8 -36 -10 -30 -2 2 4 11 8 20 8 8 0 13 -3 10 -6z m-1971 -33 c-3 -12 -2 -18
3 -15 5 4 10 0 10 -8 0 -18 -27 -29 -40 -16 -7 7 -6 15 1 24 7 8 9 17 6 20 -9
9 6 28 17 21 5 -3 7 -15 3 -26z m56 12 c0 -5 -5 -10 -11 -10 -5 0 -7 5 -4 10
3 6 8 10 11 10 2 0 4 -4 4 -10z m1840 6 c0 -3 -4 -8 -10 -11 -5 -3 -10 -1 -10
4 0 6 5 11 10 11 6 0 10 -2 10 -4z m91 -33 c12 -16 12 -17 -2 -6 -9 7 -20 9
-24 5 -5 -4 -5 -1 -1 6 9 16 11 15 27 -5z m79 11 c0 -8 -19 -13 -24 -6 -3 5 1
9 9 9 8 0 15 -2 15 -3z m-175 -32 c-3 -3 -11 0 -18 7 -9 10 -8 11 6 5 10 -3
15 -9 12 -12z m-1890 -42 c-9 -16 -13 -30 -10 -30 4 0 -1 -7 -9 -16 -9 -8 -14
-20 -11 -25 3 -4 -1 -19 -10 -32 -8 -13 -14 -26 -13 -28 2 -3 -5 4 -14 14 -16
17 -18 17 -18 3 0 -10 -4 -15 -9 -12 -4 3 -13 -7 -20 -22 -10 -25 -10 -25 4
-8 19 25 44 6 43 -32 -1 -44 1 -54 11 -48 10 7 9 -19 -1 -29 -3 -4 -4 -20 -1
-36 2 -16 0 -29 -5 -29 -5 0 -8 -11 -7 -24 3 -21 -1 -24 -23 -22 -14 2 -28 9
-30 16 -3 7 0 10 6 6 6 -3 14 -1 18 5 4 8 9 7 15 -2 6 -9 7 -1 4 21 -4 27 -3
32 6 20 7 -10 9 -11 7 -2 -5 18 -23 16 -23 -2 0 -16 -15 -34 -16 -20 0 5 -2
19 -5 32 -2 13 0 21 4 18 5 -3 18 1 28 9 10 8 14 15 8 15 -7 0 -10 13 -9 30 1
16 0 29 -4 28 -20 -2 -31 3 -26 12 4 6 10 8 15 5 14 -9 23 16 11 28 -9 9 -11
8 -6 -4 4 -12 -1 -15 -25 -15 -38 0 -38 7 1 51 22 24 37 34 49 30 10 -3 21 -1
25 4 4 7 -1 8 -12 4 -15 -5 -16 -3 -6 7 10 11 10 17 0 29 -10 12 -9 14 5 8 12
-4 21 0 28 13 6 11 7 20 3 20 -4 0 -1 5 7 11 12 8 12 10 1 7 -8 -2 -15 -12
-17 -22 -3 -25 -14 -33 -14 -12 0 12 -5 16 -15 12 -8 -3 -15 -2 -15 3 0 5 7
14 15 21 8 7 15 10 15 7 0 -4 15 -1 58 12 1 1 -4 -12 -13 -29z m1829 12 c3 -5
-1 -9 -9 -9 -8 0 -12 4 -9 9 3 4 7 8 9 8 2 0 6 -4 9 -8z m-1893 -39 c2 1 -2
-3 -9 -9 -10 -9 -10 -13 3 -18 9 -3 13 -11 9 -17 -8 -13 -26 13 -31 45 -3 15
0 16 10 7 8 -6 16 -10 18 -8z m822 -42 c-4 -14 -3 -14 9 -1 11 13 44 17 87 11
14 -2 7 -31 -9 -41 -8 -5 -18 -6 -22 -4 -4 3 -8 0 -8 -6 0 -7 7 -10 18 -6 14
5 14 4 -2 -9 -14 -11 -16 -15 -5 -15 12 0 12 -2 -1 -10 -9 -6 -10 -10 -3 -10
7 0 1 -12 -13 -27 -13 -14 -27 -23 -31 -20 -3 4 -12 2 -19 -4 -9 -7 -12 -6
-10 7 2 10 8 20 14 22 7 2 10 8 7 12 -3 5 -13 7 -23 4 -14 -5 -15 -4 -2 5 12
9 13 13 2 20 -11 6 -10 10 5 15 16 7 16 9 2 19 -18 14 -20 54 -3 54 7 0 10 -7
7 -16z m163 7 c3 -5 2 -14 -4 -20 -6 -6 -8 -17 -5 -24 6 -17 -18 -19 -34 -3
-9 9 -11 7 -9 -7 2 -11 11 -19 22 -19 10 0 25 -4 32 -8 7 -5 12 -4 12 3 0 6 5
8 11 5 6 -4 8 -9 5 -12 -8 -9 -96 -11 -91 -2 3 4 1 10 -4 13 -5 4 -8 0 -7 -8
2 -17 50 -58 60 -51 3 3 2 0 -4 -7 -6 -8 -6 -16 1 -25 7 -7 7 -13 2 -13 -5 0
-9 -9 -10 -21 -1 -14 3 -19 13 -15 12 5 12 2 3 -15 -9 -17 -8 -20 3 -13 22 14
36 13 50 -4 10 -12 10 -14 1 -8 -19 11 -16 -9 4 -25 9 -8 17 -12 17 -10 1 2
12 1 25 -4 18 -5 21 -9 10 -16 -18 -11 -32 -11 -24 0 3 5 0 13 -6 17 -8 4 -9
3 -5 -4 4 -7 2 -12 -4 -12 -6 0 -13 7 -17 16 -5 14 -7 14 -17 -2 -14 -26 -16
-45 -4 -38 7 5 8 2 3 -6 -6 -9 -4 -11 6 -5 11 6 12 5 2 -6 -7 -7 -13 -18 -13
-24 0 -5 5 -3 10 5 7 11 10 11 10 2 0 -7 4 -11 9 -8 5 3 15 -2 22 -12 12 -15
12 -15 -1 -5 -13 10 -15 7 -16 -18 -1 -16 2 -29 7 -29 5 0 9 6 9 14 0 8 5 18
11 21 12 8 8 -27 -5 -36 -4 -4 -3 -10 3 -13 6 -4 11 -2 11 3 0 6 5 11 11 11 8
0 7 -6 -2 -17 -8 -10 -9 -14 -2 -10 21 13 23 -10 3 -36 -11 -14 -20 -29 -20
-33 0 -4 7 1 16 12 8 10 12 13 8 5 -4 -8 -3 -12 2 -8 5 3 21 -3 34 -13 22 -17
22 -18 5 -17 -12 1 -20 -4 -20 -13 0 -8 9 -15 20 -15 11 -1 19 -6 18 -13 -2
-6 4 -9 15 -6 9 3 6 -2 -8 -11 -18 -12 -19 -14 -5 -9 11 3 25 7 32 7 7 0 9 5
6 11 -3 6 -4 9 0 6 3 -3 5 -9 6 -13 0 -5 8 -15 17 -22 16 -11 16 -15 4 -29
-11 -15 -11 -17 1 -14 8 2 13 -3 11 -10 -1 -9 2 -11 10 -6 8 5 7 1 -2 -11 -8
-10 -10 -16 -3 -12 8 5 11 1 8 -14 -4 -18 -2 -19 12 -7 9 7 14 8 10 2 -3 -6 0
-11 7 -11 8 0 12 7 9 16 -4 14 -4 14 6 1 15 -21 14 -33 -2 -27 -8 3 -14 -1
-14 -8 0 -8 7 -11 16 -8 11 4 10 0 -4 -11 -11 -10 -14 -15 -8 -11 8 3 11 1 10
-7 -2 -7 -2 -9 1 -5 2 4 9 1 16 -7 7 -11 16 -13 26 -6 8 5 11 12 7 17 -5 4
-13 1 -18 -7 -9 -13 -10 -13 -6 0 2 8 12 14 22 13 12 -1 14 2 6 10 -7 7 -15 6
-26 -3 -15 -12 -22 0 -8 14 11 10 12 36 2 36 -5 0 -9 6 -9 13 0 6 14 -2 29
-20 16 -17 31 -29 34 -27 3 3 8 0 13 -7 4 -7 3 -10 -3 -6 -13 8 -26 -20 -16
-35 3 -6 1 -8 -4 -5 -6 4 -16 0 -23 -8 -13 -16 -7 -30 13 -30 7 -1 11 -7 9
-14 -1 -7 2 -10 9 -5 8 5 9 3 4 -6 -5 -9 -4 -11 3 -6 8 5 10 1 5 -9 -5 -13 -7
-14 -14 -3 -5 7 -9 9 -9 4 0 -5 -9 -1 -21 10 -12 10 -24 18 -28 17 -3 0 -5 4
-3 9 2 6 -4 8 -12 5 -11 -4 -13 -1 -9 10 5 12 3 14 -8 8 -12 -8 -12 -6 0 8 15
19 2 24 -16 6 -8 -8 -15 -5 -25 10 -8 12 -18 18 -23 13 -5 -4 -5 -2 -1 5 4 8
-5 18 -24 28 -16 8 -30 20 -30 26 0 6 -4 8 -9 5 -8 -6 -37 21 -42 39 -2 6 -16
21 -31 34 -16 13 -28 28 -27 35 3 24 -1 37 -11 31 -6 -4 -7 -11 -4 -17 5 -7 2
-8 -5 -3 -9 5 -10 10 -2 18 15 15 14 27 -2 21 -8 -3 -20 2 -27 11 -7 9 -9 15
-4 14 20 -4 35 2 29 11 -3 5 -11 7 -18 5 -18 -7 -40 11 -42 33 -1 11 -7 27
-14 36 -8 9 -9 16 -4 16 5 0 9 8 10 19 1 14 -4 17 -23 15 -22 -2 -23 0 -12 14
11 14 10 15 -7 9 -18 -7 -19 -6 -3 6 10 8 15 17 11 20 -3 4 -1 12 5 20 7 8 7
18 2 27 -6 8 -10 13 -11 10 -8 -45 -11 -56 -20 -65 -7 -7 -8 -4 -3 9 5 13 1
23 -11 32 -10 8 -16 17 -12 20 4 4 2 13 -5 21 -9 11 -7 12 8 6 17 -6 17 -5 6
10 -8 9 -11 21 -8 26 4 5 2 12 -3 15 -5 4 -12 -2 -14 -11 -3 -10 -4 6 -2 36 2
48 1 53 -11 36 -15 -20 -18 -17 -8 9 3 9 12 16 18 16 18 0 61 52 61 73 0 10 7
22 15 27 8 5 11 10 7 10 -5 0 -5 6 0 13 7 11 9 16 12 35 2 12 40 12 47 0z
m-1010 -173 c3 -17 2 -17 -20 -9 -13 5 -14 9 -5 20 13 16 22 12 25 -11z m-2
-37 c-4 -6 -10 -5 -15 3 -9 15 -11 11 -13 -38 -1 -17 -8 -38 -14 -46 -10 -12
-9 -16 5 -22 10 -4 26 -9 35 -10 22 -2 37 -15 18 -15 -10 0 -10 -3 0 -15 10
-12 10 -18 1 -29 -8 -10 -9 -16 -1 -21 7 -4 7 -12 0 -26 -11 -19 -30 -18 -30
2 0 6 4 8 9 4 5 -3 13 0 17 6 4 7 3 9 -4 5 -7 -4 -10 1 -7 14 3 13 0 18 -7 14
-7 -5 -8 -2 -3 6 6 9 4 11 -6 6 -8 -4 -5 0 6 9 20 17 20 17 -4 10 -13 -4 -21
-3 -18 2 3 5 1 15 -5 23 -8 12 -9 12 -4 -2 3 -11 0 -18 -7 -19 -9 0 -9 -2 1
-6 14 -6 16 -33 2 -33 -10 0 -14 19 -12 55 1 17 0 16 -13 -5 -13 -24 -14 -24
-12 -2 1 12 4 22 7 22 3 0 11 9 18 20 11 18 9 22 -13 32 -24 11 -35 38 -15 38
6 0 10 -8 10 -17 1 -16 2 -16 13 2 6 11 12 24 12 28 0 13 27 26 42 20 7 -3 10
-10 7 -15z m1086 2 c0 -5 -5 -10 -11 -10 -5 0 -7 5 -4 10 3 6 8 10 11 10 2 0
4 -4 4 -10z m0 -122 c0 -8 -21 -5 -38 5 -7 5 -10 12 -7 17 6 10 45 -9 45 -22z
m76 -23 c1 -19 -1 -35 -6 -35 -14 0 -19 27 -7 39 6 6 7 11 1 11 -5 0 -10 10
-11 21 -2 17 1 19 10 10 6 -6 12 -27 13 -46z m-31 25 c-3 -5 -10 -10 -16 -10
-5 0 -9 5 -9 10 0 6 7 10 16 10 8 0 12 -4 9 -10z m0 -42 c-5 -24 -2 -26 22
-23 35 4 76 -12 68 -25 -4 -6 -1 -17 5 -25 10 -12 9 -16 -4 -21 -11 -4 -13
-10 -7 -18 7 -8 4 -16 -10 -24 -21 -13 -26 -3 -7 16 9 9 9 12 -2 12 -10 0 -10
3 3 13 12 8 14 16 7 27 -7 11 -12 12 -21 3 -9 -9 -18 -9 -31 -2 -18 9 -18 8
-9 -10 9 -17 9 -20 -3 -15 -9 3 -15 9 -14 12 2 21 -3 32 -14 26 -7 -4 -8 -3
-4 4 9 14 -24 61 -42 62 -7 0 -11 4 -8 8 3 5 21 8 40 8 33 -1 35 -3 31 -28z
m-1136 -27 c2 -1 -2 -8 -9 -16 -10 -12 -10 -18 0 -30 6 -8 17 -13 22 -12 6 1
13 -4 15 -10 3 -7 -1 -13 -7 -13 -9 0 -9 -4 -2 -12 5 -7 9 -24 8 -38 -1 -14 2
-31 7 -37 6 -9 5 -13 -2 -13 -10 0 -15 14 -12 33 1 5 -4 5 -10 2 -8 -5 -7 -1
1 15 6 12 9 24 6 28 -3 3 -6 0 -6 -7 0 -7 -5 -9 -11 -5 -8 4 -7 9 2 15 12 7
11 9 0 9 -11 0 -10 4 5 16 10 8 13 13 7 9 -17 -8 -55 13 -47 26 10 16 -15 37
-39 32 -16 -3 -18 -2 -8 5 10 8 58 9 80 3z m961 -45 c0 -3 -4 -8 -10 -11 -5
-3 -10 -1 -10 4 0 6 5 11 10 11 6 0 10 -2 10 -4z m236 -18 c-9 -5 -14 -14 -10
-19 3 -5 1 -16 -5 -23 -9 -10 -8 -15 3 -19 8 -3 17 -3 20 0 14 14 68 9 89 -8
12 -10 17 -18 10 -19 -6 0 -15 5 -18 10 -4 6 -11 8 -16 5 -5 -4 -9 -1 -9 5 0
8 -6 8 -20 0 -15 -8 -20 -8 -20 1 0 7 -3 9 -6 6 -4 -4 -1 -13 6 -22 17 -20 2
-19 -24 2 -12 10 -16 11 -9 4 6 -7 9 -21 6 -30 -4 -14 -3 -14 6 -1 9 13 15 8
13 -11 -1 -3 5 -6 13 -6 7 0 11 6 8 14 -3 7 0 13 6 13 10 0 15 -20 12 -45 -1
-5 6 -1 14 9 8 11 15 25 15 30 0 8 -3 8 -8 0 -4 -6 -13 -4 -25 8 -17 18 -17
19 8 15 15 -2 30 -9 34 -16 5 -7 12 -13 17 -13 19 0 41 -35 38 -61 -2 -18 5
-35 19 -49 12 -11 17 -18 10 -14 -6 3 -14 2 -18 -4 -4 -6 -11 -8 -16 -5 -5 4
-9 1 -9 -6 0 -7 -3 -9 -6 -6 -4 3 -15 2 -25 -3 -15 -8 -17 -7 -14 9 2 11 -3
25 -11 31 -7 7 -11 16 -8 21 6 10 -35 73 -43 65 -9 -9 -44 14 -42 27 3 18 -12
48 -21 42 -4 -3 -13 2 -20 10 -9 11 -7 17 9 31 11 10 18 21 15 26 -3 4 2 5 10
2 9 -3 16 -1 16 6 0 6 5 8 11 4 8 -5 6 -10 -5 -16z m-1211 -25 c-1 -10 2 -24
7 -30 7 -9 5 -22 -7 -40 -10 -16 -12 -22 -4 -15 21 19 28 14 27 -18 -1 -16 -5
-30 -9 -30 -4 0 -6 8 -4 19 2 10 -2 18 -8 17 -7 0 -13 1 -13 4 -1 3 -13 26
-27 53 -14 26 -22 45 -17 42 4 -3 19 -1 32 4 12 6 24 10 25 10 1 1 0 -7 -2
-16z m1185 -83 c0 -5 -2 -10 -4 -10 -3 0 -8 5 -11 10 -3 6 -1 10 4 10 6 0 11
-4 11 -10z m-1185 -39 c-3 -6 4 -15 16 -21 23 -13 19 -22 -10 -27 -28 -4 -47
23 -31 42 14 16 35 21 25 6z m22 -114 c-6 -19 -23 -18 -24 2 -1 14 3 18 13 14
8 -3 13 -10 11 -16z m1403 -1 c0 -3 -4 -8 -10 -11 -5 -3 -10 -1 -10 4 0 6 5
11 10 11 6 0 10 -2 10 -4z m74 -88 l21 -17 -21 -21 c-13 -13 -27 -18 -38 -14
-14 5 -15 9 -5 15 8 4 16 4 19 0 3 -5 12 -2 20 7 13 14 12 15 -4 9 -14 -5 -17
-3 -13 8 4 8 1 17 -5 21 -7 5 -8 2 -3 -6 5 -9 4 -11 -3 -6 -7 4 -10 2 -7 -6 3
-7 -4 -19 -16 -27 -19 -11 -21 -11 -16 3 4 10 1 19 -8 22 -8 4 -15 11 -15 16
0 6 7 4 16 -3 14 -11 18 -10 29 5 8 10 11 25 9 34 -4 11 -1 10 7 -3 7 -11 22
-27 33 -37z m-82 -30 c-8 -8 -7 -15 3 -24 16 -16 29 -19 20 -4 -11 18 4 10 40
-21 25 -22 34 -37 30 -50 -5 -15 -1 -17 24 -14 31 4 47 -7 36 -25 -4 -7 -14
-6 -28 2 -12 7 -28 13 -36 14 -8 2 -17 8 -21 14 -4 7 -10 11 -14 11 -20 -3
-26 0 -20 11 5 8 2 9 -9 5 -11 -4 -17 -1 -17 8 0 8 8 12 20 10 11 -2 23 1 26
7 5 7 2 8 -6 3 -9 -6 -11 -4 -5 6 7 12 6 12 -7 1 -13 -11 -20 -8 -42 18 -14
18 -26 26 -26 19 0 -7 -3 -10 -6 -6 -10 10 3 23 27 24 16 2 19 -1 11 -9z
m-1198 -406 c3 -5 -1 -9 -9 -9 -8 0 -12 4 -9 9 3 4 7 8 9 8 2 0 6 -4 9 -8z
m946 -282 c0 -5 -4 -10 -10 -10 -5 0 -10 5 -10 10 0 6 5 10 10 10 6 0 10 -4
10 -10z m-32 -32 c7 -7 12 -16 12 -20 0 -15 -15 -8 -28 12 -13 22 -3 27 16 8z
m-908 -8 c0 -5 -5 -10 -11 -10 -5 0 -7 5 -4 10 3 6 8 10 11 10 2 0 4 -4 4 -10z"/>
<path d="M1766 3247 c-12 -12 -21 -16 -25 -9 -4 6 -12 7 -20 3 -9 -6 -7 -10 8
-14 20 -5 73 26 61 35 -3 3 -13 -4 -24 -15z"/>
<path d="M1707 3207 c-9 -23 8 -40 22 -23 13 15 7 36 -9 36 -4 0 -10 -6 -13
-13z m23 -7 c0 -5 -5 -10 -11 -10 -5 0 -7 5 -4 10 3 6 8 10 11 10 2 0 4 -4 4
-10z"/>
<path d="M2411 2962 c-1 -7 -5 -11 -10 -7 -5 3 -12 1 -16 -5 -4 -6 -12 -7 -18
-3 -7 3 -4 -3 6 -14 12 -14 15 -23 8 -28 -8 -4 -7 -13 1 -28 7 -12 11 -28 10
-34 -2 -7 2 -13 8 -13 6 0 9 4 6 9 -3 5 0 11 8 14 14 6 16 44 3 65 -5 6 -3 13
2 13 6 1 16 2 23 3 16 2 19 33 2 33 -7 0 -11 -4 -8 -9 3 -4 1 -8 -5 -8 -5 0
-12 6 -14 13 -4 9 -6 9 -6 -1z m-1 -27 c-5 -7 -7 -15 -3 -19 7 -7 13 -56 7
-56 -1 0 -10 7 -19 16 -11 12 -13 20 -5 29 8 9 8 15 0 20 -14 8 -5 22 14 22
11 0 13 -4 6 -12z"/>
<path d="M2395 2901 c-3 -5 -2 -12 3 -15 5 -3 9 1 9 9 0 17 -3 19 -12 6z"/>
<path d="M2510 2959 c0 -5 -5 -7 -11 -3 -8 4 -8 0 0 -15 15 -27 16 -26 17 4 1
14 0 25 -2 25 -2 0 -4 -5 -4 -11z"/>
<path d="M2436 2831 c-32 -33 -40 -66 -24 -95 7 -11 12 -28 13 -36 0 -18 37
-20 43 -2 4 14 -19 12 -30 -3 -5 -6 -8 -6 -8 2 0 6 5 15 11 18 6 5 4 12 -8 21
-16 13 -16 14 0 8 9 -3 17 -1 17 4 0 6 -9 9 -20 7 -24 -5 -27 10 -4 19 13 5
14 9 5 20 -10 12 -9 14 6 12 10 -2 18 -7 18 -12 0 -5 4 -15 9 -23 7 -11 6 -12
-5 -6 -12 8 -12 6 -1 -8 8 -9 10 -22 6 -28 -5 -8 -3 -9 6 -4 9 6 11 4 5 -5 -5
-8 -4 -11 2 -7 5 3 10 0 10 -8 0 -8 -5 -15 -11 -15 -6 0 -4 -4 4 -9 8 -6 18
-7 24 -4 5 4 6 0 1 -8 -7 -12 -6 -12 7 -1 13 11 18 11 24 0 4 -7 4 -10 -1 -6
-4 4 -15 3 -22 -4 -11 -9 -16 -9 -23 2 -5 8 -12 11 -17 7 -4 -5 -3 -11 3 -15
11 -8 12 -27 2 -38 -11 -11 -10 -24 3 -24 5 0 7 4 4 10 -3 6 1 7 10 4 16 -6
18 15 3 26 -4 3 3 12 15 19 12 8 19 10 15 6 -4 -5 -2 -15 5 -23 8 -11 8 -14 0
-9 -6 4 -14 3 -18 -3 -3 -5 1 -10 10 -10 11 0 15 -5 11 -16 -4 -10 -2 -13 6
-8 7 5 8 3 3 -6 -6 -9 -4 -11 5 -5 9 6 11 4 5 -5 -6 -9 -4 -11 6 -5 8 5 11 4
6 -1 -5 -5 -14 -9 -20 -9 -5 0 -12 -5 -14 -12 -3 -8 3 -11 17 -8 13 3 18 0 14
-7 -5 -7 -2 -8 7 -4 8 4 5 1 -5 -8 -10 -8 -23 -13 -29 -9 -5 3 -7 0 -5 -8 3
-8 12 -12 19 -10 8 2 20 4 27 4 6 0 12 4 12 9 0 4 5 8 12 8 6 0 8 -3 5 -6 -3
-4 -2 -16 4 -27 9 -15 8 -18 -2 -12 -7 5 -10 4 -5 -3 3 -6 1 -14 -5 -18 -8 -4
-7 -9 2 -15 11 -7 11 -9 1 -9 -10 0 -10 -5 -2 -20 6 -11 16 -20 22 -20 6 0 5
6 -3 17 -10 11 -10 14 -1 9 6 -4 12 -2 12 3 0 6 5 11 11 11 8 0 8 -4 0 -14 -9
-11 -9 -15 1 -19 11 -4 11 -6 0 -6 -10 -1 -10 -4 0 -15 9 -10 15 -11 20 -2 6
8 8 8 8 -1 0 -18 17 -16 23 1 4 10 1 13 -7 10 -20 -8 -41 23 -27 39 15 19 3
29 -20 17 -29 -16 -33 6 -8 43 12 17 19 29 15 25 -10 -8 -76 39 -76 54 0 5 4
7 9 4 5 -4 8 2 7 11 -2 10 -9 18 -17 18 -8 0 -15 7 -15 15 -1 8 -3 18 -4 23
-6 19 -5 33 3 45 5 6 6 12 1 12 -5 0 -2 5 6 10 12 8 12 10 1 10 -10 0 -11 3
-2 14 10 11 9 14 -3 12 -9 -1 -19 -5 -22 -9 -13 -13 -26 -7 -21 8 4 8 2 17 -3
20 -6 4 -8 19 -5 35 3 19 0 30 -10 34 -8 3 -12 12 -9 19 10 27 -24 26 -50 -2z
m39 -1 c-3 -4 2 -13 9 -19 8 -7 13 -23 10 -36 -2 -13 0 -27 6 -30 6 -4 8 -11
4 -16 -3 -5 -10 -7 -15 -3 -5 3 -7 10 -4 15 4 5 1 9 -6 9 -7 0 -9 3 -6 7 4 3
2 12 -4 20 -6 7 -8 13 -4 13 4 0 2 7 -5 15 -7 8 -17 12 -24 8 -6 -3 -3 3 8 15
17 20 43 22 31 2z m71 -135 c0 -18 -3 -22 -13 -13 -7 5 -19 8 -26 5 -8 -3 -14
1 -14 9 0 9 7 12 18 9 9 -3 20 -1 24 5 9 15 11 13 11 -15z"/>
<path d="M2456 2831 c-3 -5 1 -14 9 -21 8 -7 13 -16 10 -20 -3 -5 -1 -11 4
-14 13 -8 8 19 -7 36 -6 8 -9 18 -5 21 3 4 4 7 0 7 -3 0 -8 -4 -11 -9z"/>
<path d="M2430 2659 c-7 -12 -5 -21 6 -30 8 -7 14 -8 12 -3 -1 5 3 18 9 30 10
17 9 21 -3 21 -8 0 -19 -8 -24 -18z"/>
<path d="M2495 2587 c-26 -16 -31 -39 -8 -35 14 2 18 -4 19 -27 1 -16 2 -34 4
-40 1 -5 2 -14 1 -19 -3 -15 22 -37 35 -32 7 3 16 1 19 -4 7 -12 26 -13 24 -2
-1 4 -1 9 1 12 1 3 3 15 6 27 3 17 0 21 -16 18 -11 -2 -23 -6 -28 -9 -4 -2
-15 2 -25 9 -12 9 -14 15 -7 20 6 4 8 15 5 25 -3 10 -1 21 5 25 11 7 4 25 -10
25 -5 0 -6 -8 -3 -17 6 -15 5 -16 -9 -3 -14 14 -14 16 6 27 11 7 17 12 11 12
-5 0 -19 -5 -30 -12z m80 -117 c-3 -5 0 -10 7 -10 10 0 10 -2 -1 -9 -18 -12
-44 -7 -47 8 -1 6 0 7 3 1 3 -6 10 -4 20 5 17 17 27 20 18 5z"/>
<path d="M2560 2399 c-13 -9 -13 -10 1 -6 21 7 44 -21 44 -52 0 -13 7 -27 15
-29 13 -5 13 -3 1 11 -11 14 -11 17 0 18 8 1 19 1 24 -1 6 -1 -7 15 -29 34
-21 20 -39 36 -40 36 0 0 -8 -5 -16 -11z"/>
<path d="M2656 2341 c-4 -6 -12 -9 -17 -6 -13 9 -11 -9 3 -23 17 -17 28 -15
22 6 -5 14 -4 15 5 2 9 -13 11 -13 11 0 0 12 2 12 9 2 4 -8 11 -13 15 -13 19
3 27 0 21 -8 -3 -5 -1 -12 5 -16 6 -4 8 -11 4 -16 -8 -14 16 -41 32 -35 13 5
11 -31 -2 -43 -4 -3 -5 2 -1 11 3 9 0 19 -7 21 -22 9 -7 -31 18 -48 11 -9 20
-18 19 -20 -7 -13 -2 -16 10 -6 17 13 16 66 -1 66 -7 0 -12 5 -13 10 0 6 -4
15 -9 20 -4 6 -6 18 -5 27 2 10 0 17 -3 17 -19 -3 -23 3 -12 16 11 13 10 18
-6 29 -13 10 -24 11 -36 5 -19 -10 -40 -8 -49 5 -4 4 -10 3 -13 -3z m94 -36
c-6 -8 -6 -15 2 -23 7 -7 13 -19 14 -27 2 -13 -1 -14 -12 -4 -7 6 -12 15 -9
19 3 5 1 11 -5 15 -6 4 -8 11 -5 16 4 5 -1 12 -10 15 -13 5 -14 9 -4 15 18 11
42 -10 29 -26z m56 -121 c-1 -13 -6 -27 -10 -31 -5 -4 -6 -3 -2 4 3 6 -2 16
-11 22 -11 6 -13 11 -5 11 7 0 11 4 8 8 -3 5 1 9 8 9 7 0 12 -11 12 -23z"/>
<path d="M2630 2304 c0 -5 9 -15 20 -22 12 -7 18 -16 15 -21 -2 -5 2 -14 10
-21 10 -9 15 -9 15 -1 0 6 5 11 11 11 5 0 7 -4 4 -10 -3 -5 -1 -10 5 -10 6 0
9 -4 6 -9 -3 -5 0 -11 7 -14 18 -7 15 32 -2 43 -9 5 -10 10 -2 14 7 5 7 12 -1
25 -12 19 -24 21 -46 7 -7 -4 -19 -2 -27 4 -8 7 -15 8 -15 4z m58 -15 c-2 -6
3 -14 11 -17 9 -3 11 0 6 8 -6 9 -4 11 5 5 10 -6 9 -11 -5 -22 -11 -7 -24 -13
-29 -13 -6 0 -5 4 3 9 9 6 10 11 2 15 -6 4 -9 12 -6 17 8 13 16 11 13 -2z"/>
<path d="M2836 2142 c-3 -5 1 -15 9 -22 8 -7 12 -17 8 -24 -3 -6 -2 -8 2 -3 5
4 16 0 25 -8 14 -13 17 -13 17 0 0 8 -4 12 -9 9 -4 -3 -16 9 -27 26 -10 18
-21 27 -25 22z"/>
<path d="M2624 2603 c2 -10 6 -17 10 -16 15 3 16 11 2 22 -12 10 -14 9 -12 -6z"/>
<path d="M2653 2556 c-3 -6 -3 -8 2 -4 4 4 15 4 24 -1 9 -5 25 -5 36 0 14 5
15 8 5 9 -8 1 -25 3 -38 4 -13 2 -26 -2 -29 -8z"/>
<path d="M2671 2476 c-7 -8 -8 -17 -3 -20 6 -3 15 1 21 8 7 8 8 17 3 20 -6 3
-15 -1 -21 -8z"/>
<path d="M2807 2384 c-3 -3 -3 -12 0 -20 3 -8 2 -14 -3 -12 -5 2 -10 0 -11 -4
-6 -17 -2 -20 12 -8 8 7 15 8 15 2 0 -5 -7 -15 -15 -22 -19 -16 -1 -42 22 -33
12 5 14 3 8 -8 -8 -12 -6 -12 8 0 13 11 17 11 17 1 0 -8 3 -10 7 -7 3 4 -1 15
-9 24 -9 10 -14 29 -13 43 3 35 -20 62 -38 44z m28 -40 c0 -16 4 -36 9 -44 7
-12 6 -13 -5 -2 -16 15 -33 16 -23 0 5 -7 3 -8 -5 -4 -9 6 -8 12 4 26 17 18
17 39 0 53 -6 5 -4 7 5 4 9 -2 15 -15 15 -33z"/>
<path d="M1478 2451 c8 -4 13 -11 13 -15 -2 -17 0 -19 11 -8 10 10 10 15 -2
22 -8 5 -19 10 -25 10 -5 0 -4 -4 3 -9z"/>
<path d="M1480 2346 c0 -2 7 -9 15 -16 9 -7 15 -8 15 -2 0 5 -7 12 -15 16 -8
3 -15 4 -15 2z"/>
<path d="M2976 2054 c-4 -9 -4 -19 -1 -22 3 -3 5 1 5 9 0 12 2 12 10 -1 5 -8
11 -12 14 -10 2 3 -1 13 -9 23 -12 16 -13 16 -19 1z"/>
<path d="M2019 3848 c-5 -18 -6 -38 -1 -34 7 8 12 36 6 36 -2 0 -4 -1 -5 -2z"/>
<path d="M1421 3805 c-7 -19 -17 -33 -22 -30 -5 3 -6 0 -3 -8 8 -21 -55 -81
-110 -103 -25 -10 -46 -22 -46 -26 0 -3 20 -16 45 -28 25 -12 45 -26 45 -31 0
-6 5 -7 12 -3 6 4 8 3 4 -4 -3 -6 4 -18 16 -26 12 -9 17 -16 11 -16 -7 0 -15
5 -18 10 -4 6 -11 7 -17 4 -7 -4 -5 -10 6 -16 12 -7 14 -13 6 -29 -9 -16 -7
-19 10 -19 14 0 19 4 14 13 -4 6 -3 8 1 4 15 -13 14 -36 -3 -49 -15 -12 -16
-11 -3 5 12 15 11 17 -7 17 -25 0 -23 -24 4 -45 24 -18 40 -19 25 -1 -15 18 5
34 22 17 9 -9 7 -11 -8 -6 -17 6 -17 4 4 -15 20 -17 22 -23 11 -33 -10 -9 -11
-9 -6 0 4 8 0 11 -14 8 -11 -2 -20 0 -20 5 0 5 -10 14 -22 20 -22 11 -22 10
-4 -4 11 -9 16 -19 12 -23 -10 -10 -48 36 -40 48 3 5 0 9 -7 9 -7 0 -4 7 7 15
14 11 14 13 3 9 -13 -4 -16 1 -15 25 0 16 5 27 10 24 5 -4 6 -1 2 6 -4 6 -12
9 -17 6 -5 -4 -9 -2 -9 4 0 5 5 13 10 16 6 3 10 1 10 -5 0 -6 5 -8 12 -4 12 8
-17 35 -36 33 -6 0 -5 -3 2 -6 6 -2 9 -9 6 -14 -3 -6 -12 -5 -22 3 -10 8 -13
8 -9 1 4 -6 4 -13 0 -16 -5 -2 -2 -2 5 0 8 1 12 -3 9 -9 -2 -7 2 -21 11 -30
17 -20 3 -25 -17 -5 -11 10 -12 9 -6 -2 6 -11 4 -13 -7 -8 -17 6 -19 -16 -3
-30 4 -4 5 -3 2 3 -11 19 20 24 35 7 11 -15 10 -16 -7 -10 -17 6 -18 5 -4 -5
22 -19 29 -44 16 -59 -10 -11 -9 -11 4 -1 13 9 19 7 35 -11 35 -40 40 -51 18
-43 -14 5 -16 4 -7 -5 17 -17 35 -2 23 21 -19 35 -10 35 22 0 18 -19 32 -38
31 -41 -4 -13 44 -27 58 -17 11 8 10 9 -3 4 -23 -7 -61 33 -54 56 2 12 0 16
-7 12 -7 -4 -6 -1 2 7 10 11 15 11 18 1 3 -6 9 -10 13 -7 5 3 7 12 4 20 -4 8
-11 12 -18 8 -6 -4 -5 1 3 10 12 15 16 15 41 2 15 -8 30 -11 34 -8 3 4 6 1 6
-6 0 -8 -6 -11 -16 -7 -10 4 -13 2 -8 -6 5 -7 3 -8 -6 -3 -9 5 -11 4 -6 -3 4
-7 2 -10 -6 -9 -7 2 -10 2 -5 0 4 -3 7 -9 7 -15 0 -6 -6 -6 -15 2 -12 10 -15
10 -15 -1 0 -11 -3 -11 -11 1 -9 13 -10 13 -6 0 2 -10 14 -14 33 -12 16 1 38
3 49 3 16 0 17 2 5 9 -8 5 -19 6 -25 3 -6 -4 -6 -2 1 6 11 12 44 5 44 -10 0
-5 5 -9 11 -9 8 0 8 4 0 14 -7 8 -8 16 -4 19 10 6 34 -19 26 -27 -4 -3 -1 -6
5 -6 18 0 14 15 -8 35 -19 17 -19 35 1 35 6 0 8 -4 4 -9 -3 -5 0 -13 6 -16 21
-14 20 4 -3 39 -16 22 -28 32 -34 26 -6 -6 -14 -1 -23 13 -11 18 -11 20 0 10
21 -20 34 -15 15 6 -13 15 -14 20 -4 24 11 5 10 7 -1 15 -9 7 -10 11 -2 17 9
5 9 11 -1 23 -8 10 -9 13 -1 9 6 -4 15 -1 20 6 12 20 52 39 65 31 7 -4 8 -3 4
4 -6 11 13 17 37 13 5 -1 6 3 3 8 -3 5 -16 7 -28 3 -15 -3 -19 -2 -14 7 4 6 4
11 -1 10 -4 -1 -11 0 -15 1 -12 4 -27 7 -37 9 -16 2 -81 67 -74 74 3 4 2 7 -4
7 -13 0 -54 76 -46 84 4 3 2 6 -3 6 -6 0 -16 -16 -23 -35z m113 -361 c5 -13 9
-14 20 -5 9 7 17 8 20 3 3 -6 -1 -15 -9 -22 -8 -7 -13 -16 -10 -20 3 -4 -2
-10 -10 -13 -9 -4 -12 -1 -8 8 3 9 -4 18 -20 24 -14 5 -28 16 -32 23 -6 10 -5
11 6 1 7 -7 20 -13 29 -13 12 1 11 4 -4 15 -16 12 -17 15 -4 15 9 0 19 -7 22
-16z m-92 -16 c-7 -7 -12 -8 -12 -2 0 14 12 26 19 19 2 -3 -1 -11 -7 -17z
m-23 -72 c-3 -3 -11 5 -18 17 -13 21 -12 21 5 5 10 -10 16 -20 13 -22z"/>
<path d="M1555 3430 c-4 -6 -11 -7 -17 -4 -7 4 -8 2 -4 -5 6 -9 11 -9 22 0 14
11 18 19 10 19 -3 0 -8 -5 -11 -10z"/>
<path d="M1953 3805 c0 -8 4 -12 9 -9 5 3 6 10 3 15 -9 13 -12 11 -12 -6z"/>
<path d="M1795 3799 c-3 -4 2 -6 10 -5 21 3 28 13 10 13 -9 0 -18 -4 -20 -8z"/>
<path d="M1895 3780 c-3 -5 -1 -10 4 -10 6 0 11 5 11 10 0 6 -2 10 -4 10 -3 0
-8 -4 -11 -10z"/>
<path d="M2010 3780 c0 -5 5 -10 11 -10 5 0 7 5 4 10 -3 6 -8 10 -11 10 -2 0
-4 -4 -4 -10z"/>
<path d="M1739 3748 c-5 -18 -6 -38 -1 -34 7 8 12 36 6 36 -2 0 -4 -1 -5 -2z"/>
<path d="M1810 3740 c0 -5 5 -10 11 -10 5 0 7 5 4 10 -3 6 -8 10 -11 10 -2 0
-4 -4 -4 -10z"/>
<path d="M2000 3720 c-9 -6 -10 -10 -3 -10 6 0 15 5 18 10 8 12 4 12 -15 0z"/>
<path d="M1650 3679 c0 -5 5 -7 10 -4 6 3 10 8 10 11 0 2 -4 4 -10 4 -5 0 -10
-5 -10 -11z"/>
<path d="M1776 3682 c-3 -5 1 -9 9 -9 8 0 12 4 9 9 -3 4 -7 8 -9 8 -2 0 -6 -4
-9 -8z"/>
<path d="M2015 3680 c3 -5 8 -10 11 -10 2 0 4 5 4 10 0 6 -5 10 -11 10 -5 0
-7 -4 -4 -10z"/>
<path d="M1920 3655 c-7 -8 -16 -13 -20 -10 -5 3 -11 2 -14 -3 -10 -17 24 -8
41 10 9 10 14 18 11 18 -3 0 -11 -7 -18 -15z"/>
<path d="M1815 3650 c-4 -6 -11 -8 -16 -5 -5 4 -9 1 -9 -4 0 -16 16 -13 30 4
7 8 10 15 7 15 -3 0 -9 -5 -12 -10z"/>
<path d="M1973 3647 c0 -16 34 -20 43 -5 4 7 2 8 -5 4 -6 -4 -18 -3 -25 3 -9
8 -13 7 -13 -2z"/>
<path d="M1835 3641 c-3 -5 -2 -12 3 -15 5 -3 9 1 9 9 0 17 -3 19 -12 6z"/>
<path d="M1655 3611 c-3 -5 -2 -12 3 -15 5 -3 9 1 9 9 0 17 -3 19 -12 6z"/>
<path d="M1815 3609 c-4 -6 -5 -12 -2 -15 2 -3 7 2 10 11 7 17 1 20 -8 4z"/>
<path d="M1893 3605 c-3 -9 -3 -18 -1 -21 3 -3 8 4 11 16 6 23 -1 27 -10 5z"/>
<path d="M1256 3595 c-9 -26 -7 -32 5 -12 6 10 9 21 6 23 -2 3 -7 -2 -11 -11z"/>
<path d="M1920 3600 c-8 -5 -10 -10 -5 -10 6 0 17 5 25 10 8 5 11 10 5 10 -5
0 -17 -5 -25 -10z"/>
<path d="M1569 3583 c-26 -31 -18 -83 20 -131 28 -35 36 -40 43 -27 11 19 0
38 -18 31 -7 -3 -16 -1 -19 4 -6 10 7 14 33 11 6 -1 20 3 30 9 14 8 12 9 -9 4
-16 -3 -30 -1 -34 6 -4 7 0 10 11 8 22 -4 32 28 14 46 -9 8 -10 4 -5 -19 6
-29 6 -29 -9 -11 -9 11 -14 27 -11 35 2 9 0 23 -5 31 -5 8 -10 11 -10 5 0 -5
-4 -4 -8 3 -7 10 -12 8 -23 -5z m31 -13 c13 -8 12 -11 -5 -25 -12 -9 -14 -14
-6 -13 8 2 17 -6 19 -16 3 -15 0 -17 -14 -12 -18 6 -18 5 -1 -8 15 -11 15 -15
3 -19 -16 -7 -40 16 -29 27 12 12 12 67 0 59 -6 -3 -7 -1 -3 5 9 14 16 15 36
2z m30 -130 c0 -5 -4 -10 -10 -10 -5 0 -10 5 -10 10 0 6 5 10 10 10 6 0 10 -4
10 -10z"/>
<path d="M1628 3593 c6 -2 9 -10 6 -15 -4 -7 -2 -8 5 -4 13 9 5 26 -12 25 -9
0 -8 -2 1 -6z"/>
<path d="M1947 3574 c4 -12 3 -15 -5 -10 -8 5 -10 1 -5 -10 5 -13 3 -15 -7 -9
-9 6 -11 4 -5 -5 6 -10 11 -9 22 5 16 22 16 32 3 40 -6 4 -7 -1 -3 -11z"/>
<path d="M1729 3563 c-13 -16 -12 -17 4 -4 9 7 17 15 17 17 0 8 -8 3 -21 -13z"/>
<path d="M1824 3566 c11 -9 16 -16 11 -16 -5 0 -4 -5 3 -12 9 -9 15 -9 25 1
10 10 8 11 -7 5 -13 -5 -17 -4 -12 4 4 6 -3 16 -16 22 -22 11 -22 10 -4 -4z"/>
<path d="M1998 3573 c7 -3 16 -2 19 1 4 3 -2 6 -13 5 -11 0 -14 -3 -6 -6z"/>
<path d="M1670 3561 c0 -6 4 -13 10 -16 6 -3 7 1 4 9 -7 18 -14 21 -14 7z"/>
<path d="M1893 3558 c2 -7 -3 -19 -12 -26 -14 -11 -13 -12 6 -2 14 6 20 16 17
25 -7 18 -17 20 -11 3z"/>
<path d="M1988 3553 c7 -3 16 -2 19 1 4 3 -2 6 -13 5 -11 0 -14 -3 -6 -6z"/>
<path d="M1956 3535 c-3 -9 -6 -22 -5 -28 0 -7 5 -1 10 12 5 13 8 26 5 28 -2
2 -6 -3 -10 -12z"/>
<path d="M1235 3529 c-4 -6 -5 -12 -2 -15 2 -3 7 2 10 11 7 17 1 20 -8 4z"/>
<path d="M1684 3526 c-10 -8 -17 -16 -14 -19 3 -2 14 4 24 14 23 22 18 25 -10
5z"/>
<path d="M1736 3526 c3 -9 13 -16 22 -16 8 0 13 1 11 3 -2 1 -12 9 -22 16 -15
12 -17 12 -11 -3z"/>
<path d="M1796 3515 c-11 -8 -16 -15 -10 -15 5 0 18 7 28 15 11 8 16 15 10 15
-5 0 -18 -7 -28 -15z"/>
<path d="M1911 3523 c-1 -17 16 -25 25 -12 4 7 3 9 -4 5 -5 -3 -13 0 -15 6 -4
9 -6 10 -6 1z"/>
<path d="M1329 3518 c-4 -15 -6 -38 -3 -38 2 0 8 9 14 20 7 14 7 20 0 20 -5 0
-10 -1 -11 -2z"/>
<path d="M1714 3489 c-2 -33 4 -33 11 -1 2 12 1 24 -3 26 -4 2 -8 -9 -8 -25z"/>
<path d="M1815 3499 c-5 -8 -5 -11 0 -7 4 4 13 0 20 -9 12 -16 40 -9 30 8 -4
5 3 9 14 9 12 0 20 -5 19 -11 -2 -6 4 -14 12 -16 12 -4 12 -3 2 5 -8 5 -13 13
-13 18 1 5 -9 9 -21 9 -13 0 -22 -5 -20 -12 3 -18 -9 -16 -23 4 -10 13 -13 14
-20 2z"/>
<path d="M1778 3472 c5 -15 4 -16 -13 -2 -15 12 -17 12 -10 1 6 -11 4 -13 -9
-8 -10 4 -15 3 -11 -3 8 -13 48 -6 53 8 2 7 9 9 15 5 7 -3 8 -2 4 2 -15 17
-36 14 -29 -3z"/>
<path d="M1930 3479 c0 -5 5 -7 10 -4 6 3 10 8 10 11 0 2 -4 4 -10 4 -5 0 -10
-5 -10 -11z"/>
<path d="M1659 3465 c-7 -32 -1 -50 17 -48 13 1 20 -4 21 -18 2 -17 -1 -18
-13 -8 -8 7 -14 8 -13 3 4 -22 -2 -35 -13 -28 -7 4 -8 3 -4 -4 10 -17 26 -15
26 3 0 8 6 14 13 13 7 -2 12 7 12 22 -1 19 -6 25 -22 23 -22 -2 -28 25 -8 39
6 5 5 8 -2 8 -7 0 -13 -2 -14 -5z"/>
<path d="M1815 3460 c-3 -5 -1 -18 5 -27 9 -15 10 -14 4 7 -6 24 -5 24 12 8
14 -14 15 -20 5 -32 -13 -16 -45 -10 -35 6 4 6 -6 2 -21 -8 l-28 -18 7 24 c6
21 5 22 -4 7 -15 -23 -4 -40 18 -28 20 10 45 3 36 -10 -3 -5 -2 -9 1 -9 10 0
44 43 45 55 0 15 -38 36 -45 25z"/>
<path d="M1870 3461 c0 -5 6 -12 13 -14 9 -4 8 -8 -3 -16 -17 -12 -10 -14 14
-5 12 5 13 9 3 25 -12 20 -27 25 -27 10z"/>
<path d="M1277 3433 c5 -12 3 -14 -8 -8 -8 5 -11 4 -6 0 4 -5 14 -10 22 -11
12 -2 12 2 5 17 -13 23 -22 25 -13 2z"/>
<path d="M1704 3443 c4 -4 16 -8 28 -10 28 -4 18 6 -12 12 -12 2 -20 1 -16 -2z"/>
<path d="M1042 3404 c-7 -13 -23 -29 -36 -36 -14 -6 -27 -17 -30 -25 -3 -8 -1
-11 4 -8 12 7 50 -12 50 -26 0 -11 25 -39 34 -39 3 0 5 6 4 13 -2 6 2 11 8 10
7 -1 11 5 10 15 0 10 6 16 16 16 10 -1 15 2 12 7 -3 5 -1 9 4 9 5 0 9 6 9 14
0 7 -7 13 -15 12 -9 0 -25 13 -37 31 l-22 32 -11 -25z"/>
<path d="M1467 3404 c3 -7 9 -14 14 -14 14 0 10 17 -5 23 -10 4 -13 1 -9 -9z"/>
<path d="M1721 3404 c0 -11 3 -14 6 -6 3 7 2 16 -1 19 -3 4 -6 -2 -5 -13z"/>
<path d="M1625 3390 c-10 -11 -15 -23 -12 -27 4 -3 7 -1 7 6 0 7 4 10 8 7 4
-2 14 -1 22 5 11 6 12 9 2 9 -7 0 -10 5 -7 10 10 17 -1 11 -20 -10z"/>
<path d="M1845 3386 c-11 -16 -23 -22 -40 -20 -14 1 -25 -2 -25 -6 0 -5 12 -8
28 -8 46 1 54 -1 46 -14 -4 -7 -3 -9 1 -5 16 14 14 36 -2 30 -13 -5 -13 -2 -4
15 6 11 16 23 23 25 10 4 10 6 1 6 -7 1 -19 -10 -28 -23z"/>
<path d="M1316 3381 c-3 -5 1 -14 9 -21 10 -9 15 -9 15 -1 0 6 -5 11 -11 11
-5 0 -7 5 -4 10 3 6 4 10 1 10 -3 0 -7 -4 -10 -9z"/>
<path d="M1727 3376 c-9 -7 -17 -18 -17 -25 0 -6 9 -2 21 10 24 24 22 33 -4
15z"/>
<path d="M1636 3347 c3 -10 9 -15 12 -12 3 3 0 11 -7 18 -10 9 -11 8 -5 -6z"/>
<path d="M1600 3339 c-13 -9 -13 -10 2 -6 12 4 16 0 15 -14 -1 -11 -9 -19 -20
-19 -10 0 -16 4 -13 8 2 4 0 14 -5 22 -7 11 -8 8 -6 -10 4 -29 37 -39 55 -17
17 20 -7 51 -28 36z"/>
<path d="M1342 3324 c10 -10 20 -16 22 -13 3 3 -5 11 -17 18 -21 13 -21 12 -5
-5z"/>
<path d="M1502 3331 c-11 -7 -10 -9 3 -14 9 -4 14 -3 10 2 -3 5 1 12 7 14 7 3
9 6 3 6 -5 0 -16 -3 -23 -8z"/>
<path d="M1539 3330 c-1 -8 -1 -18 0 -22 0 -5 -6 -8 -14 -8 -8 0 -15 -5 -15
-10 0 -7 6 -7 19 0 27 14 31 23 20 40 -7 13 -9 13 -10 0z"/>
<path d="M1670 3330 c-8 -5 -10 -10 -5 -10 6 0 17 5 25 10 8 5 11 10 5 10 -5
0 -17 -5 -25 -10z"/>
<path d="M1386 3321 c-4 -5 3 -7 14 -4 23 6 26 13 6 13 -8 0 -17 -4 -20 -9z"/>
<path d="M1415 3300 c6 -10 4 -12 -11 -6 -15 6 -17 5 -6 -5 9 -9 15 -10 23 -2
8 8 7 13 -2 18 -8 6 -10 4 -4 -5z"/>
<path d="M1096 3282 c-3 -5 1 -9 9 -9 8 0 12 4 9 9 -3 4 -7 8 -9 8 -2 0 -6 -4
-9 -8z"/>
<path d="M1130 3279 c0 -5 5 -7 10 -4 6 3 10 8 10 11 0 2 -4 4 -10 4 -5 0 -10
-5 -10 -11z"/>
<path d="M1373 3275 c0 -8 4 -12 9 -9 5 3 6 10 3 15 -9 13 -12 11 -12 -6z"/>
<path d="M1439 3288 c-6 -21 -5 -38 1 -38 5 0 8 9 7 20 -1 17 -5 26 -8 18z"/>
<path d="M1485 3279 c-4 -6 -5 -12 -2 -15 2 -3 7 2 10 11 7 17 1 20 -8 4z"/>
<path d="M1540 3280 c-12 -7 -10 -9 8 -7 12 0 22 5 22 9 0 11 -12 10 -30 -2z"/>
<path d="M1620 3280 c-8 -5 -10 -10 -5 -10 6 0 17 5 25 10 8 5 11 10 5 10 -5
0 -17 -5 -25 -10z"/>
<path d="M1516 3257 c3 -10 9 -15 12 -12 3 3 0 11 -7 18 -10 9 -11 8 -5 -6z"/>
<path d="M1099 3233 c-13 -16 -12 -17 4 -4 9 7 17 15 17 17 0 8 -8 3 -21 -13z"/>
<path d="M1250 3240 c0 -5 5 -10 11 -10 5 0 7 5 4 10 -3 6 -8 10 -11 10 -2 0
-4 -4 -4 -10z"/>
<path d="M1473 3240 c-34 -14 -28 -21 7 -9 17 6 30 13 30 15 0 6 -12 4 -37 -6z"/>
<path d="M975 3220 c-2 -3 5 -6 15 -7 11 -1 22 2 24 5 3 4 -4 8 -15 8 -11 0
-22 -3 -24 -6z"/>
<path d="M1507 3224 c7 -3 15 -5 19 -4 4 1 11 -4 16 -12 8 -11 9 -10 6 1 -2 8
-15 15 -29 17 -13 1 -18 0 -12 -2z"/>
<path d="M1594 3221 c4 -5 3 -11 -1 -14 -5 -2 -2 -2 5 -1 6 2 12 -1 12 -6 0
-6 5 -10 10 -10 6 0 5 8 -2 20 -7 11 -16 20 -21 20 -4 0 -6 -4 -3 -9z"/>
<path d="M1046 3204 c-19 -19 -21 -31 -3 -15 8 6 16 9 19 6 2 -3 5 2 5 10 0
19 -2 19 -21 -1z"/>
<path d="M1415 3210 c-4 -6 -10 -8 -15 -5 -4 3 -14 -3 -21 -13 -12 -15 -12
-16 2 -5 9 7 18 11 21 8 3 -3 11 1 18 10 7 8 10 15 7 15 -3 0 -9 -5 -12 -10z"/>
<path d="M1485 3200 c-3 -5 -2 -10 4 -10 5 0 13 5 16 10 3 6 2 10 -4 10 -5 0
-13 -4 -16 -10z"/>
<path d="M1434 3192 c3 -5 0 -13 -6 -15 -9 -4 -10 -6 -1 -6 17 -1 25 16 12 25
-7 4 -9 3 -5 -4z"/>
<path d="M1515 3189 c-4 -6 -5 -12 -2 -15 2 -3 7 2 10 11 7 17 1 20 -8 4z"/>
<path d="M1215 3160 c3 -5 8 -10 11 -10 2 0 4 5 4 10 0 6 -5 10 -11 10 -5 0
-7 -4 -4 -10z"/>
<path d="M1280 3160 c-9 -6 -10 -10 -3 -10 6 0 15 5 18 10 8 12 4 12 -15 0z"/>
<path d="M1377 3159 c7 -7 15 -10 18 -7 3 3 -2 9 -12 12 -14 6 -15 5 -6 -5z"/>
<path d="M1461 3159 c17 -11 39 -12 39 -1 0 4 -12 8 -27 9 -19 1 -22 -1 -12
-8z"/>
<path d="M1013 3135 c0 -8 4 -12 9 -9 5 3 6 10 3 15 -9 13 -12 11 -12 -6z"/>
<path d="M1050 3139 c0 -5 5 -7 10 -4 6 3 10 8 10 11 0 2 -4 4 -10 4 -5 0 -10
-5 -10 -11z"/>
<path d="M1095 3140 c3 -5 8 -10 11 -10 2 0 4 5 4 10 0 6 -5 10 -11 10 -5 0
-7 -4 -4 -10z"/>
<path d="M1404 3135 c-5 -13 -9 -13 -23 -3 -14 12 -15 11 -2 -4 18 -23 27 -23
34 2 6 23 -1 27 -9 5z"/>
<path d="M1438 3132 c4 -10 7 -12 10 -4 2 7 9 9 15 5 7 -3 8 -2 4 2 -14 16
-36 14 -29 -3z"/>
<path d="M1475 3120 c-3 -5 -1 -10 4 -10 6 0 11 5 11 10 0 6 -2 10 -4 10 -3 0
-8 -4 -11 -10z"/>
<path d="M1215 3099 c-3 -4 2 -6 10 -5 21 3 28 13 10 13 -9 0 -18 -4 -20 -8z"/>
<path d="M1319 3108 c-5 -16 -4 -46 2 -42 4 2 7 13 6 24 -1 17 -5 26 -8 18z"/>
<path d="M1418 3088 c5 -5 16 -8 23 -6 8 3 3 7 -10 11 -17 4 -21 3 -13 -5z"/>
<path d="M1387 3066 c-4 -10 -1 -13 8 -9 8 3 12 9 9 14 -7 12 -11 11 -17 -5z"/>
<path d="M1270 3066 c0 -2 7 -7 16 -10 8 -3 12 -2 9 4 -6 10 -25 14 -25 6z"/>
<path d="M1235 3040 c-3 -5 -1 -10 4 -10 6 0 11 5 11 10 0 6 -2 10 -4 10 -3 0
-8 -4 -11 -10z"/>
<path d="M1447 3039 c7 -7 15 -10 18 -7 3 3 -2 9 -12 12 -14 6 -15 5 -6 -5z"/>
<path d="M1347 3017 c2 -4 -1 -16 -9 -25 -12 -15 -11 -16 4 -4 9 8 22 11 27 8
5 -4 13 -1 17 5 5 8 3 9 -6 4 -9 -6 -12 -4 -8 6 4 10 -1 15 -12 15 -10 0 -16
-4 -13 -9z"/>
<path d="M1432 3016 c7 -8 15 -12 17 -11 5 6 -10 25 -20 25 -5 0 -4 -6 3 -14z"/>
<path d="M1410 2995 c0 -8 2 -15 4 -15 2 0 6 7 10 15 3 8 1 15 -4 15 -6 0 -10
-7 -10 -15z"/>
<path d="M1273 2985 c0 -8 4 -15 9 -15 4 0 8 4 8 9 0 6 -4 12 -8 15 -5 3 -9
-1 -9 -9z"/>
<path d="M1407 2963 c-4 -3 -7 -11 -7 -17 0 -6 4 -5 9 3 6 9 11 10 15 2 9 -15
26 -14 26 1 0 6 -3 8 -7 5 -3 -4 -11 -2 -18 3 -7 5 -15 7 -18 3z"/>
<path d="M2585 2960 c-3 -5 -1 -10 4 -10 6 0 11 5 11 10 0 6 -2 10 -4 10 -3 0
-8 -4 -11 -10z"/>
<path d="M2690 2966 c0 -2 7 -7 16 -10 8 -3 12 -2 9 4 -6 10 -25 14 -25 6z"/>
<path d="M1350 2940 c0 -5 5 -10 10 -10 6 0 10 5 10 10 0 6 -4 10 -10 10 -5 0
-10 -4 -10 -10z"/>
<path d="M2576 2923 c10 -18 25 -35 33 -38 14 -5 3 10 -43 60 -5 6 -1 -4 10
-22z"/>
<path d="M2680 2940 c-8 -5 -12 -12 -9 -15 4 -3 12 1 19 10 14 17 11 19 -10 5z"/>
<path d="M2793 2935 c0 -8 4 -12 9 -9 5 3 6 10 3 15 -9 13 -12 11 -12 -6z"/>
<path d="M2602 2924 c10 -10 20 -16 22 -13 3 3 -5 11 -17 18 -21 13 -21 12 -5
-5z"/>
<path d="M1296 2918 c3 -5 10 -6 15 -3 13 9 11 12 -6 12 -8 0 -12 -4 -9 -9z"/>
<path d="M1410 2920 c0 -5 5 -10 10 -10 6 0 10 5 10 10 0 6 -4 10 -10 10 -5 0
-10 -4 -10 -10z"/>
<path d="M2739 2913 c-13 -16 -12 -17 4 -4 16 13 21 21 13 21 -2 0 -10 -8 -17
-17z"/>
<path d="M2854 2916 c1 -8 5 -18 8 -22 4 -3 5 1 4 10 -1 8 -5 18 -8 22 -4 3
-5 -1 -4 -10z"/>
<path d="M2648 2913 c6 -2 9 -10 6 -15 -4 -7 -2 -8 5 -4 13 9 5 26 -12 25 -9
0 -8 -2 1 -6z"/>
<path d="M1315 2901 c-3 -5 -2 -12 3 -15 5 -3 9 1 9 9 0 17 -3 19 -12 6z"/>
<path d="M1433 2895 c-8 -22 5 -31 20 -15 9 10 9 11 0 6 -7 -4 -13 -3 -13 3 0
5 6 12 13 14 9 4 9 6 -1 6 -7 1 -15 -6 -19 -14z"/>
<path d="M2676 2893 c-6 -14 -5 -15 5 -6 7 7 10 15 7 18 -3 3 -9 -2 -12 -12z"/>
<path d="M2795 2899 c-3 -4 2 -6 10 -5 21 3 28 13 10 13 -9 0 -18 -4 -20 -8z"/>
<path d="M1400 2888 c0 -25 4 -33 13 -30 18 6 5 -20 -15 -27 -19 -7 -19 -8 -4
-14 10 -4 14 -11 11 -17 -3 -5 -1 -10 5 -10 7 0 9 7 6 16 -4 9 -2 22 4 29 7 9
6 21 -5 41 -10 19 -15 23 -15 12z"/>
<path d="M2630 2891 c0 -10 19 -25 25 -20 1 2 -3 10 -11 17 -8 7 -14 8 -14 3z"/>
<path d="M1361 2874 c0 -11 3 -14 6 -6 3 7 2 16 -1 19 -3 4 -6 -2 -5 -13z"/>
<path d="M2694 2879 c-3 -6 -1 -16 5 -22 9 -9 10 -7 5 7 -6 15 -4 17 6 11 9
-5 11 -4 6 3 -9 15 -13 15 -22 1z"/>
<path d="M1170 2859 c0 -5 5 -7 10 -4 6 3 10 8 10 11 0 2 -4 4 -10 4 -5 0 -10
-5 -10 -11z"/>
<path d="M1313 2863 c4 -3 -1 -16 -10 -27 -18 -21 -18 -21 5 -2 24 21 29 36
10 36 -6 0 -8 -3 -5 -7z"/>
<path d="M2724 2859 c-3 -6 -2 -15 3 -20 5 -5 9 -1 9 11 0 23 -2 24 -12 9z"/>
<path d="M2753 2853 c0 -9 4 -10 14 -2 7 6 13 12 13 14 0 1 -6 2 -13 2 -8 0
-14 -6 -14 -14z"/>
<path d="M1237 2850 c7 -8 20 -15 29 -16 9 -1 13 1 9 4 -4 4 -10 7 -13 7 -4 0
-14 4 -22 9 -12 7 -13 6 -3 -4z"/>
<path d="M1354 2832 c3 -5 0 -13 -6 -15 -9 -4 -10 -6 -1 -6 17 -1 25 16 12 25
-7 4 -9 3 -5 -4z"/>
<path d="M1215 2820 c3 -5 8 -10 11 -10 2 0 4 5 4 10 0 6 -5 10 -11 10 -5 0
-7 -4 -4 -10z"/>
<path d="M2893 2809 c-2 -23 3 -25 10 -4 4 8 3 16 -1 19 -4 3 -9 -4 -9 -15z"/>
<path d="M1310 2800 c0 -5 5 -10 10 -10 6 0 10 5 10 10 0 6 -4 10 -10 10 -5 0
-10 -4 -10 -10z"/>
<path d="M1374 2794 c5 -13 2 -15 -14 -11 -11 3 -23 0 -27 -5 -3 -7 -1 -8 5
-4 7 4 12 2 12 -4 0 -17 33 5 36 24 1 9 -2 16 -8 16 -6 0 -7 -7 -4 -16z"/>
<path d="M2654 2796 c11 -9 27 -16 35 -15 14 0 14 1 1 6 -8 3 -24 10 -35 15
-20 9 -20 9 -1 -6z"/>
<path d="M1176 2778 c3 -5 10 -6 15 -3 13 9 11 12 -6 12 -8 0 -12 -4 -9 -9z"/>
<path d="M1280 2775 c-7 -8 -9 -15 -5 -15 4 0 1 -8 -6 -17 -13 -16 -12 -17 4
-4 9 8 15 16 12 19 -3 3 0 11 6 19 6 7 9 13 6 13 -2 0 -10 -7 -17 -15z"/>
<path d="M2755 2780 c-16 -7 -17 -9 -3 -9 9 -1 20 4 23 9 7 11 7 11 -20 0z"/>
<path d="M1416 2768 c5 -7 2 -9 -8 -6 -8 4 -21 2 -29 -3 -9 -5 -5 -7 15 -6 27
2 51 27 26 27 -6 0 -8 -5 -4 -12z"/>
<path d="M1301 2754 c0 -11 3 -14 6 -6 3 7 2 16 -1 19 -3 4 -6 -2 -5 -13z"/>
<path d="M2661 2754 c0 -11 3 -14 6 -6 3 7 2 16 -1 19 -3 4 -6 -2 -5 -13z"/>
<path d="M2690 2755 c0 -8 2 -15 4 -15 2 0 6 7 10 15 3 8 1 15 -4 15 -6 0 -10
-7 -10 -15z"/>
<path d="M2793 2750 c2 -11 10 -26 17 -33 12 -10 12 -9 3 3 -6 8 -9 23 -8 33
2 9 -1 17 -6 17 -5 0 -7 -9 -6 -20z"/>
<path d="M1175 2740 c3 -5 8 -10 11 -10 2 0 4 5 4 10 0 6 -5 10 -11 10 -5 0
-7 -4 -4 -10z"/>
<path d="M2755 2735 c-3 -8 -7 -22 -10 -31 -3 -8 -1 -13 4 -10 5 3 11 17 13
31 6 27 0 34 -7 10z"/>
<path d="M2935 2740 c3 -5 8 -10 11 -10 2 0 4 5 4 10 0 6 -5 10 -11 10 -5 0
-7 -4 -4 -10z"/>
<path d="M1360 2737 c0 -16 21 -47 29 -42 5 2 15 -3 22 -12 12 -14 11 -15 -11
-10 -14 4 -19 4 -12 1 6 -3 9 -10 6 -16 -4 -6 2 -5 15 1 11 7 21 16 21 20 0 9
-19 19 -33 17 -5 0 -15 10 -22 24 -8 14 -14 21 -15 17z"/>
<path d="M1390 2729 c0 -5 5 -7 10 -4 6 3 10 8 10 11 0 2 -4 4 -10 4 -5 0 -10
-5 -10 -11z"/>
<path d="M3075 2731 c-3 -5 -2 -12 3 -15 5 -3 9 1 9 9 0 17 -3 19 -12 6z"/>
<path d="M1341 2714 c0 -11 3 -14 6 -6 3 7 2 16 -1 19 -3 4 -6 -2 -5 -13z"/>
<path d="M2640 2720 c0 -5 5 -10 10 -10 6 0 10 5 10 10 0 6 -4 10 -10 10 -5 0
-10 -4 -10 -10z"/>
<path d="M2670 2720 c0 -5 5 -10 10 -10 6 0 10 5 10 10 0 6 -4 10 -10 10 -5 0
-10 -4 -10 -10z"/>
<path d="M2702 2723 c0 -5 -2 -16 -7 -26 -4 -10 -5 -21 -1 -24 3 -4 6 1 6 11
0 9 4 15 10 11 5 -3 7 -12 3 -20 -6 -17 22 -21 32 -5 3 5 0 7 -8 4 -9 -3 -14
1 -14 13 0 33 -3 43 -13 43 -5 0 -9 -3 -8 -7z"/>
<path d="M3033 2715 c0 -8 4 -12 9 -9 5 3 6 10 3 15 -9 13 -12 11 -12 -6z"/>
<path d="M2830 2716 c0 -2 8 -10 18 -17 15 -13 16 -12 3 4 -13 16 -21 21 -21
13z"/>
<path d="M1316 2694 c-3 -9 -2 -22 2 -31 6 -10 9 -5 9 16 0 35 -2 38 -11 15z"/>
<path d="M2973 2689 c-2 -23 3 -25 10 -4 4 8 3 16 -1 19 -4 3 -9 -4 -9 -15z"/>
<path d="M3312 2703 c5 -15 -24 -73 -33 -67 -5 3 -6 -1 -3 -9 5 -14 -74 -92
-84 -82 -3 3 -11 0 -19 -6 -10 -9 -17 -8 -30 2 -17 13 -17 13 -3 -5 14 -18 13
-19 -3 -13 -15 5 -16 3 -7 -12 5 -10 20 -22 32 -25 24 -7 53 -29 78 -60 14
-18 14 -19 -7 -5 -13 8 -23 17 -23 22 0 4 -5 5 -11 2 -6 -5 -3 -13 10 -22 12
-8 20 -22 20 -31 -1 -15 -2 -15 -6 1 -2 9 -9 15 -14 11 -5 -3 -6 -10 -3 -16 4
-7 2 -8 -4 -4 -7 4 -12 2 -12 -3 0 -6 6 -11 13 -11 8 0 19 -11 25 -25 8 -17
17 -23 29 -19 10 2 8 -1 -4 -7 -24 -13 -31 -31 -11 -27 7 2 19 9 26 16 8 7 17
10 21 7 3 -4 -2 -11 -12 -16 -9 -6 -17 -15 -17 -21 0 -6 11 -3 25 6 13 9 30
16 37 16 7 0 -1 -8 -19 -16 -20 -10 -31 -23 -30 -35 1 -10 5 -19 10 -19 5 0 7
7 4 14 -4 10 -1 13 8 10 31 -12 3 -47 -30 -38 -18 4 -18 4 -2 -6 9 -6 15 -17
11 -23 -3 -7 1 -4 10 7 8 10 20 15 27 10 7 -4 10 -3 6 3 -4 6 5 15 18 21 14 7
25 8 25 3 0 -5 -7 -11 -15 -15 -17 -6 -20 -26 -4 -26 5 0 8 4 5 9 -3 5 1 11 9
15 8 3 15 13 15 23 1 17 2 16 15 -1 13 -17 15 -18 15 -3 0 9 -5 17 -12 17 -6
0 -8 3 -4 7 11 11 40 13 52 2 8 -7 15 -6 20 2 4 7 3 9 -3 6 -6 -4 -17 1 -24
10 -12 15 -12 16 4 10 9 -3 17 -2 17 2 0 5 -7 12 -16 15 -20 8 -24 8 -23 -1 4
-27 -1 -35 -16 -23 -14 11 -19 7 -16 -12 0 -4 -7 -5 -17 -2 -13 4 -14 3 -4 -4
11 -7 11 -10 -3 -15 -9 -4 -14 -3 -11 1 3 5 -1 9 -8 9 -8 0 -12 -6 -9 -14 3
-7 0 -13 -7 -13 -6 0 -9 4 -5 9 3 5 1 12 -5 16 -6 4 -8 11 -4 16 3 5 9 7 14 4
5 -3 18 8 30 25 18 25 25 28 41 20 18 -10 29 3 12 13 -5 2 -2 2 5 0 9 -2 11 3
7 17 -4 12 -2 20 5 20 6 0 8 4 5 10 -4 6 1 7 12 4 17 -5 17 -5 0 9 -16 13 -16
15 -2 21 11 4 14 2 9 -6 -4 -6 -3 -8 3 -5 6 4 13 0 17 -8 3 -8 1 -15 -4 -15
-9 0 -6 -38 4 -47 9 -9 26 8 25 25 -1 15 -2 15 -6 -1 -2 -9 -9 -15 -14 -12 -5
4 -5 13 0 24 7 13 5 24 -6 40 -12 18 -12 22 -2 20 26 -3 37 1 42 16 4 8 1 17
-5 21 -6 4 -8 3 -5 -3 7 -12 -16 -36 -25 -27 -4 3 -20 -2 -37 -10 -21 -12 -29
-21 -25 -34 5 -13 4 -14 -4 -3 -14 20 14 62 35 54 10 -4 14 -2 10 4 -9 14 59
57 74 47 8 -4 7 0 -1 16 -6 12 -14 19 -17 16 -10 -10 -64 24 -57 36 5 7 3 8
-5 3 -16 -9 -71 50 -96 104 -10 23 -22 41 -27 41 -4 0 -7 -3 -6 -7z m-51 -316
c-10 -9 -11 -8 -5 6 3 10 9 15 12 12 3 -3 0 -11 -7 -18z m126 -4 c-4 -3 -2
-12 3 -18 7 -9 6 -14 -3 -18 -9 -3 -13 2 -11 16 3 28 3 27 11 27 3 0 3 -3 0
-7z m-137 -28 c0 -8 -2 -15 -4 -15 -2 0 -6 7 -10 15 -3 8 -1 15 4 15 6 0 10
-7 10 -15z m93 -30 c-3 -9 -8 -14 -10 -11 -3 3 -2 9 2 15 9 16 15 13 8 -4z"/>
<path d="M1249 2684 c-11 -14 -24 -52 -14 -42 2 1 3 6 2 9 -1 4 7 16 17 28 11
12 17 21 14 21 -3 0 -12 -7 -19 -16z"/>
<path d="M2811 2693 c-1 -17 16 -25 25 -12 4 7 3 9 -4 5 -5 -3 -13 0 -15 6 -4
9 -6 10 -6 1z"/>
<path d="M2884 2682 c23 -26 23 -26 23 -7 0 8 -3 13 -5 10 -3 -3 -12 1 -21 7
-10 8 -9 4 3 -10z"/>
<path d="M1346 2678 c3 -4 9 -8 15 -8 5 0 9 4 9 8 0 5 -7 9 -15 9 -8 0 -12 -4
-9 -9z"/>
<path d="M2765 2680 c-3 -5 -1 -10 4 -10 6 0 11 5 11 10 0 6 -2 10 -4 10 -3 0
-8 -4 -11 -10z"/>
<path d="M2793 2656 c3 -8 2 -17 -4 -20 -5 -2 -4 -3 2 -2 15 3 21 36 7 36 -6
0 -8 -6 -5 -14z"/>
<path d="M3015 2659 c-3 -4 2 -6 10 -5 21 3 28 13 10 13 -9 0 -18 -4 -20 -8z"/>
<path d="M1336 2643 c-6 -14 -5 -15 5 -6 7 7 10 15 7 18 -3 3 -9 -2 -12 -12z"/>
<path d="M1370 2655 c0 -5 5 -17 10 -25 5 -8 10 -10 10 -5 0 6 -5 17 -10 25
-5 8 -10 11 -10 5z"/>
<path d="M2750 2649 c0 -5 -5 -7 -11 -3 -8 4 -8 0 0 -15 12 -22 31 -29 31 -10
0 5 -5 7 -11 3 -8 -4 -9 0 -4 15 3 11 4 21 1 21 -3 0 -6 -5 -6 -11z"/>
<path d="M2936 2647 c3 -10 9 -15 12 -12 3 3 0 11 -7 18 -10 9 -11 8 -5 -6z"/>
<path d="M2880 2640 c-9 -6 -10 -10 -3 -10 6 0 15 5 18 10 8 12 4 12 -15 0z"/>
<path d="M2909 2623 c-13 -16 -12 -17 4 -4 16 13 21 21 13 21 -2 0 -10 -8 -17
-17z"/>
<path d="M1330 2605 c0 -8 4 -15 10 -15 5 0 7 7 4 15 -4 8 -8 15 -10 15 -2 0
-4 -7 -4 -15z"/>
<path d="M1226 2598 c3 -5 10 -6 15 -3 13 9 11 12 -6 12 -8 0 -12 -4 -9 -9z"/>
<path d="M2786 2602 c5 -4 12 -11 15 -15 3 -5 9 -2 12 5 3 9 -3 14 -15 15 -11
1 -16 -1 -12 -5z"/>
<path d="M3040 2600 c-9 -6 -10 -10 -3 -10 6 0 15 5 18 10 8 12 4 12 -15 0z"/>
<path d="M2751 2593 c-1 -18 19 -27 32 -13 9 10 8 12 -5 7 -9 -3 -19 -1 -22 6
-3 9 -5 9 -5 0z"/>
<path d="M2830 2590 c0 -5 5 -10 11 -10 5 0 7 5 4 10 -3 6 -8 10 -11 10 -2 0
-4 -4 -4 -10z"/>
<path d="M2916 2587 c3 -10 9 -15 12 -12 3 3 0 11 -7 18 -10 9 -11 8 -5 -6z"/>
<path d="M1240 2580 c-9 -6 -10 -10 -3 -10 6 0 15 5 18 10 8 12 4 12 -15 0z"/>
<path d="M3074 2582 c4 -3 14 -7 22 -8 9 -1 13 0 10 4 -4 3 -14 7 -22 8 -9 1
-13 0 -10 -4z"/>
<path d="M3210 2579 c0 -5 5 -7 10 -4 6 3 10 8 10 11 0 2 -4 4 -10 4 -5 0 -10
-5 -10 -11z"/>
<path d="M1314 2569 c-3 -6 -1 -16 6 -22 10 -9 11 -9 5 2 -4 8 -2 17 6 22 9 6
10 9 2 9 -6 0 -15 -5 -19 -11z"/>
<path d="M1362 2564 c10 -10 20 -16 22 -13 3 3 -5 11 -17 18 -21 13 -21 12 -5
-5z"/>
<path d="M1259 2553 c-13 -16 -12 -17 4 -4 9 7 17 15 17 17 0 8 -8 3 -21 -13z"/>
<path d="M2790 2558 c0 -11 12 -10 30 2 12 7 10 9 -8 7 -12 0 -22 -5 -22 -9z"/>
<path d="M2939 2553 c-12 -16 -12 -17 2 -6 9 7 20 9 24 5 5 -4 5 -1 1 6 -9 16
-11 15 -27 -5z"/>
<path d="M2993 2552 c-8 -14 -8 -19 1 -19 7 0 13 9 13 19 1 10 1 18 0 18 -1 0
-7 -8 -14 -18z"/>
<path d="M2875 2551 c-3 -5 -2 -12 3 -15 5 -3 9 1 9 9 0 17 -3 19 -12 6z"/>
<path d="M1150 2540 c0 -5 5 -10 11 -10 5 0 7 5 4 10 -3 6 -8 10 -11 10 -2 0
-4 -4 -4 -10z"/>
<path d="M1352 2536 c7 -8 15 -12 17 -11 5 6 -10 25 -20 25 -5 0 -4 -6 3 -14z"/>
<path d="M1393 2535 c-3 -9 -3 -19 1 -22 3 -4 6 1 6 11 0 9 5 14 10 11 6 -3
10 -1 10 4 0 17 -20 13 -27 -4z"/>
<path d="M3055 2541 c-3 -5 -2 -12 3 -15 5 -3 9 1 9 9 0 17 -3 19 -12 6z"/>
<path d="M1215 2529 c-4 -6 -5 -12 -2 -15 2 -3 7 2 10 11 7 17 1 20 -8 4z"/>
<path d="M1279 2535 c-1 -3 -2 -8 -3 -12 -1 -5 -5 -15 -10 -23 -7 -12 -6 -13
4 -3 13 12 23 43 14 43 -2 0 -5 -2 -5 -5z"/>
<path d="M1301 2514 c0 -11 3 -14 6 -6 3 7 2 16 -1 19 -3 4 -6 -2 -5 -13z"/>
<path d="M1330 2519 c0 -5 5 -7 10 -4 6 3 10 8 10 11 0 2 -4 4 -10 4 -5 0 -10
-5 -10 -11z"/>
<path d="M2850 2516 c0 -20 17 -29 26 -15 5 8 3 9 -6 4 -10 -6 -12 -4 -7 8 3
10 2 17 -3 17 -6 0 -10 -6 -10 -14z"/>
<path d="M2895 2520 c-3 -5 -1 -10 4 -10 6 0 11 5 11 10 0 6 -2 10 -4 10 -3 0
-8 -4 -11 -10z"/>
<path d="M1410 2510 c0 -5 5 -10 11 -10 5 0 7 5 4 10 -3 6 -8 10 -11 10 -2 0
-4 -4 -4 -10z"/>
<path d="M2980 2506 c0 -2 8 -10 18 -17 15 -13 16 -12 3 4 -13 16 -21 21 -21
13z"/>
<path d="M3073 2490 c-1 -10 6 -25 15 -32 15 -12 16 -11 4 4 -8 9 -11 22 -8
27 4 5 3 12 -2 15 -4 2 -8 -4 -9 -14z"/>
<path d="M3117 2489 c12 -12 24 -21 27 -18 2 2 -8 13 -22 23 l-27 19 22 -24z"/>
<path d="M1330 2491 c0 -6 4 -13 10 -16 6 -3 7 1 4 9 -7 18 -14 21 -14 7z"/>
<path d="M2908 2493 c6 -2 10 -8 8 -12 -3 -4 4 -8 15 -8 10 -1 19 3 19 8 0 6
-4 8 -9 4 -5 -3 -12 -1 -16 5 -3 5 -12 10 -18 9 -9 0 -8 -2 1 -6z"/>
<path d="M3024 2482 c4 -3 14 -7 22 -8 9 -1 13 0 10 4 -4 3 -14 7 -22 8 -9 1
-13 0 -10 -4z"/>
<path d="M1150 2460 c0 -5 5 -10 11 -10 5 0 7 5 4 10 -3 6 -8 10 -11 10 -2 0
-4 -4 -4 -10z"/>
<path d="M1266 2458 c3 -5 10 -6 15 -3 13 9 11 12 -6 12 -8 0 -12 -4 -9 -9z"/>
<path d="M1316 2455 c-3 -9 -9 -14 -14 -11 -4 2 -14 0 -22 -5 -11 -7 -10 -8 8
-6 24 4 49 23 40 32 -3 3 -8 -1 -12 -10z"/>
<path d="M3164 2448 c-11 -12 -13 -18 -5 -13 9 5 12 3 9 -6 -3 -8 -14 -13 -24
-11 -16 2 -17 1 -4 -7 8 -6 11 -11 7 -11 -4 0 -3 -9 3 -20 13 -25 -5 -28 -19
-3 -5 10 -13 14 -18 9 -4 -5 -2 -11 6 -14 10 -3 10 -6 2 -12 -7 -4 2 -7 19 -8
27 -1 30 2 25 21 -5 18 -4 19 5 5 12 -19 3 -51 -13 -41 -6 3 -7 1 -3 -6 4 -6
0 -14 -8 -17 -9 -3 -16 -11 -16 -16 0 -6 6 -5 15 2 12 10 16 9 21 -4 5 -12 10
-14 19 -6 6 5 15 7 18 3 9 -9 9 -23 0 -22 -27 4 -35 -1 -23 -16 12 -14 9 -15
-18 -10 -18 3 -32 1 -32 -3 0 -11 57 -8 85 4 17 7 18 6 7 -8 -9 -12 -10 -18
-2 -23 6 -4 14 -4 17 -1 4 3 1 6 -6 6 -7 0 -10 4 -6 10 3 5 12 7 20 3 12 -4
14 1 11 18 -3 13 -5 27 -5 32 -1 4 -4 6 -8 6 -26 -4 -35 1 -24 15 9 11 10 20
1 36 -6 11 -15 18 -19 15 -18 -11 -21 29 -4 48 10 11 13 17 7 14 -15 -9 -26
17 -12 31 6 6 6 12 0 16 -5 3 -18 -4 -28 -16z m14 -44 c-1 -5 -9 -9 -16 -10
-10 -2 -11 1 -1 12 12 14 24 13 17 -2z m27 -62 c-3 -3 0 -11 6 -19 6 -7 10
-13 8 -14 -38 -7 -49 -7 -54 1 -4 6 1 13 9 16 9 3 14 9 11 13 -2 4 2 8 10 8 8
0 13 -3 10 -5z m42 -87 c0 -10 -4 -12 -12 -5 -7 6 -20 8 -29 4 -9 -3 -16 -1
-16 6 0 6 4 9 9 5 5 -3 12 -1 16 4 8 14 32 3 32 -14z"/>
<path d="M3186 2322 c-3 -5 1 -9 9 -9 8 0 12 4 9 9 -3 4 -7 8 -9 8 -2 0 -6 -4
-9 -8z"/>
<path d="M1340 2451 c0 -6 4 -13 10 -16 6 -3 7 1 4 9 -7 18 -14 21 -14 7z"/>
<path d="M2920 2454 c0 -6 7 -19 16 -30 14 -18 14 -18 3 6 -14 31 -19 36 -19
24z"/>
<path d="M3054 2441 c0 -13 6 -17 19 -13 10 2 16 5 15 6 -2 1 -10 7 -18 13
-13 10 -16 8 -16 -6z"/>
<path d="M2970 2441 c0 -5 10 -8 23 -7 12 1 26 -3 30 -9 5 -6 7 -5 5 4 -4 15
-58 25 -58 12z"/>
<path d="M1170 2420 c0 -5 5 -10 11 -10 5 0 7 5 4 10 -3 6 -8 10 -11 10 -2 0
-4 -4 -4 -10z"/>
<path d="M1335 2420 c6 -10 4 -12 -8 -7 -21 8 -22 3 -3 -12 10 -9 15 -8 19 3
4 9 1 18 -5 22 -7 5 -8 2 -3 -6z"/>
<path d="M3106 2417 c3 -10 9 -15 12 -12 3 3 0 11 -7 18 -10 9 -11 8 -5 -6z"/>
<path d="M2960 2405 c0 -8 4 -15 10 -15 5 0 7 7 4 15 -4 8 -8 15 -10 15 -2 0
-4 -7 -4 -15z"/>
<path d="M3493 2412 c-10 -7 -10 -12 0 -25 11 -16 12 -15 12 8 0 14 0 25 0 25
0 0 -6 -4 -12 -8z"/>
<path d="M1350 2391 c-9 -17 -7 -19 11 -16 15 3 19 0 15 -10 -3 -8 -1 -15 5
-15 6 0 9 8 7 18 -2 9 -10 16 -17 14 -9 -2 -11 3 -8 13 9 22 0 19 -13 -4z"/>
<path d="M3014 2398 c-4 -5 -3 -12 0 -15 3 -4 6 -1 6 6 0 7 4 10 9 6 5 -3 12
-2 15 3 3 5 -2 9 -10 9 -8 0 -17 -4 -20 -9z"/>
<path d="M3080 2395 c-11 -13 -10 -14 4 -9 9 3 16 10 16 15 0 13 -6 11 -20 -6z"/>
<path d="M1411 2376 c-9 -11 -9 -16 0 -22 7 -4 9 -3 5 4 -3 5 0 12 6 15 7 2
10 7 7 11 -3 4 -12 0 -18 -8z"/>
<path d="M2990 2381 c0 -6 4 -13 10 -16 6 -3 7 1 4 9 -7 18 -14 21 -14 7z"/>
<path d="M2940 2360 c-11 -8 -7 -9 14 -4 20 5 27 3 22 -4 -4 -6 4 -16 16 -22
20 -9 21 -9 7 2 -9 7 -16 18 -17 23 -1 14 -24 17 -42 5z"/>
<path d="M3425 2360 c-3 -5 -1 -10 6 -10 8 0 9 -3 0 -13 -6 -8 -8 -17 -4 -20
14 -14 21 -6 19 23 -1 30 -10 38 -21 20z"/>
<path d="M3015 2351 c-9 -15 13 -23 32 -11 15 9 14 10 -6 4 -16 -4 -21 -3 -17
5 4 6 5 11 2 11 -3 0 -7 -4 -11 -9z"/>
<path d="M1235 2340 c-3 -5 -1 -10 4 -10 6 0 11 5 11 10 0 6 -2 10 -4 10 -3 0
-8 -4 -11 -10z"/>
<path d="M1305 2340 c-3 -6 1 -7 9 -4 18 7 21 14 7 14 -6 0 -13 -4 -16 -10z"/>
<path d="M3076 2339 c3 -5 10 -7 15 -4 5 4 9 -1 9 -9 0 -9 5 -16 10 -16 17 0
-5 33 -24 36 -9 1 -14 -2 -10 -7z"/>
<path d="M1388 2333 c6 -2 18 -2 25 0 6 3 1 5 -13 5 -14 0 -19 -2 -12 -5z"/>
<path d="M3055 2320 c3 -5 8 -10 11 -10 2 0 4 5 4 10 0 6 -5 10 -11 10 -5 0
-7 -4 -4 -10z"/>
<path d="M3476 2315 c-11 -8 -15 -15 -9 -15 7 0 15 5 18 10 4 6 11 7 17 4 7
-4 8 -2 4 4 -9 14 -7 15 -30 -3z"/>
<path d="M3036 2307 c3 -10 9 -15 12 -12 3 3 0 11 -7 18 -10 9 -11 8 -5 -6z"/>
<path d="M3351 2289 c-21 -29 -22 -30 -2 -17 12 7 21 17 21 21 0 5 9 5 20 2
25 -8 26 1 2 14 -15 8 -23 4 -41 -20z"/>
<path d="M1215 2300 c3 -5 8 -10 11 -10 2 0 4 5 4 10 0 6 -5 10 -11 10 -5 0
-7 -4 -4 -10z"/>
<path d="M1360 2306 c0 -2 7 -7 16 -10 8 -3 12 -2 9 4 -6 10 -25 14 -25 6z"/>
<path d="M1396 2285 c-3 -8 -1 -15 4 -15 6 0 10 7 10 15 0 8 -2 15 -4 15 -2 0
-6 -7 -10 -15z"/>
<path d="M1430 2290 c0 -6 7 -10 15 -10 8 0 15 2 15 4 0 2 -7 6 -15 10 -8 3
-15 1 -15 -4z"/>
<path d="M3060 2290 c0 -5 0 -13 -1 -17 0 -5 -11 -14 -25 -21 -13 -7 -24 -18
-23 -25 0 -9 2 -9 6 1 2 6 9 12 14 12 6 0 7 -5 3 -12 -4 -7 -3 -8 5 -4 6 4 9
11 6 16 -3 4 0 10 7 12 11 4 23 48 13 48 -3 0 -5 -4 -5 -10z"/>
<path d="M3493 2285 c0 -8 4 -12 9 -9 5 3 6 10 3 15 -9 13 -12 11 -12 -6z"/>
<path d="M1317 2278 c-7 -5 0 -6 17 -4 16 3 31 7 33 10 8 8 -37 2 -50 -6z"/>
<path d="M1468 2278 c-2 -6 -15 -12 -29 -13 -18 -1 -24 -7 -24 -26 0 -15 5
-23 13 -21 10 2 12 -4 7 -20 -5 -20 -4 -21 5 -5 12 19 4 41 -11 32 -5 -4 -9 3
-9 13 0 14 5 19 18 15 10 -2 26 5 36 16 11 12 14 21 8 21 -6 0 -12 -5 -14 -12z"/>
<path d="M3112 2276 c7 -8 15 -12 17 -11 5 6 -10 25 -20 25 -5 0 -4 -6 3 -14z"/>
<path d="M3151 2274 c0 -11 3 -14 6 -6 3 7 2 16 -1 19 -3 4 -6 -2 -5 -13z"/>
<path d="M1215 2260 c-3 -5 -1 -10 4 -10 6 0 11 5 11 10 0 6 -2 10 -4 10 -3 0
-8 -4 -11 -10z"/>
<path d="M1375 2260 c6 -10 4 -12 -11 -6 -10 4 -15 4 -12 0 4 -4 3 -16 -3 -28
-9 -19 -9 -19 4 -4 8 10 16 15 19 12 3 -2 8 2 11 10 4 9 1 18 -5 22 -7 5 -8 2
-3 -6z"/>
<path d="M3090 2246 c0 -2 7 -7 16 -10 8 -3 12 -2 9 4 -6 10 -25 14 -25 6z"/>
<path d="M3422 2240 c10 -6 15 -19 13 -30 -2 -11 0 -20 6 -20 10 0 8 28 -4 48
-5 6 -14 12 -20 12 -7 0 -4 -5 5 -10z"/>
<path d="M1450 2236 c0 -3 9 -10 20 -16 11 -6 20 -8 20 -6 0 3 -9 10 -20 16
-11 6 -20 8 -20 6z"/>
<path d="M3059 2223 c-1 -4 -1 -12 0 -16 1 -5 -9 -5 -21 -2 -13 4 -20 4 -16 0
4 -4 19 -9 33 -11 22 -2 24 0 14 12 -9 11 -8 14 9 14 15 0 19 -5 15 -19 -6
-22 12 -37 23 -20 5 8 3 9 -5 4 -9 -5 -12 0 -9 16 2 19 -2 25 -19 27 -13 2
-24 0 -24 -5z"/>
<path d="M3187 2207 c-3 -8 1 -14 9 -14 16 0 19 13 5 21 -5 3 -11 0 -14 -7z"/>
<path d="M1296 2202 c-3 -4 4 -9 15 -9 23 -2 25 3 4 10 -8 4 -16 3 -19 -1z"/>
<path d="M1390 2199 c0 -5 5 -7 10 -4 6 3 10 8 10 11 0 2 -4 4 -10 4 -5 0 -10
-5 -10 -11z"/>
<path d="M3365 2200 c-3 -6 1 -7 9 -4 18 7 21 14 7 14 -6 0 -13 -4 -16 -10z"/>
<path d="M3224 2184 c-18 -14 -18 -14 6 -3 31 14 36 19 24 19 -6 0 -19 -7 -30
-16z"/>
<path d="M3021 2183 c-1 -17 16 -25 25 -12 4 7 3 9 -4 5 -5 -3 -13 0 -15 6 -4
9 -6 10 -6 1z"/>
<path d="M3150 2180 c0 -5 5 -10 10 -10 6 0 10 5 10 10 0 6 -4 10 -10 10 -5 0
-10 -4 -10 -10z"/>
<path d="M3297 2183 c-3 -5 -2 -16 2 -25 6 -17 7 -16 18 2 11 16 10 18 -4 13
-11 -4 -14 -3 -9 5 4 7 5 12 2 12 -3 0 -7 -3 -9 -7z"/>
<path d="M3380 2185 c0 -2 6 -8 13 -14 10 -8 14 -7 14 2 0 8 -6 14 -14 14 -7
0 -13 -1 -13 -2z"/>
<path d="M1335 2171 c-3 -5 -2 -12 3 -15 5 -3 9 1 9 9 0 17 -3 19 -12 6z"/>
<path d="M1380 2176 c0 -2 7 -7 16 -10 8 -3 12 -2 9 4 -6 10 -25 14 -25 6z"/>
<path d="M3341 2157 c-13 -21 -12 -21 5 -5 10 10 16 20 13 22 -3 3 -11 -5 -18
-17z"/>
<path d="M3128 2163 c6 -2 10 -9 7 -13 -3 -5 0 -12 6 -16 8 -4 9 -3 5 4 -4 7
-1 12 6 12 9 0 9 3 -2 10 -8 5 -19 9 -25 9 -5 0 -4 -3 3 -6z"/>
<path d="M3190 2152 c6 -13 14 -21 18 -18 3 4 -2 14 -12 24 -18 16 -18 16 -6
-6z"/>
<path d="M1401 2141 c-9 -6 -10 -11 -2 -15 6 -4 11 -2 11 4 0 6 5 8 12 4 7 -4
8 -3 4 4 -8 14 -7 14 -25 3z"/>
<path d="M3220 2132 c0 -11 27 -42 37 -42 3 0 -2 10 -13 23 -10 12 -20 24 -21
26 -2 2 -3 -1 -3 -7z"/>
<path d="M3150 2120 c-13 -8 -12 -10 3 -10 9 0 17 5 17 10 0 12 -1 12 -20 0z"/>
<path d="M3309 2117 c6 -8 9 -16 6 -19 -3 -2 2 -5 10 -5 13 0 13 3 -2 19 -19
21 -31 25 -14 5z"/>
<path d="M3353 2115 c0 -8 4 -12 9 -9 5 3 6 10 3 15 -9 13 -12 11 -12 -6z"/>
<path d="M3174 2098 c-4 -7 -4 -10 1 -6 4 4 14 0 21 -10 7 -9 14 -12 14 -6 0
6 -6 17 -14 23 -11 9 -16 9 -22 -1z"/>
<path d="M3145 2080 c3 -5 11 -10 16 -10 6 0 7 5 4 10 -3 6 -11 10 -16 10 -6
0 -7 -4 -4 -10z"/>
<path d="M3260 2080 c-12 -7 -10 -9 7 -7 12 0 19 5 17 9 -6 10 -6 10 -24 -2z"/>
<path d="M3505 2080 c-3 -6 1 -7 9 -4 18 7 21 14 7 14 -6 0 -13 -4 -16 -10z"/>
<path d="M3119 2053 c-13 -17 -13 -17 5 -3 17 13 19 13 14 0 -3 -8 -15 -15
-27 -14 -15 0 -19 -2 -11 -10 7 -7 16 -7 28 0 13 9 20 7 29 -5 10 -14 14 -14
25 -2 11 12 10 13 -4 8 -10 -4 -18 -3 -18 1 0 5 -6 16 -13 26 -12 17 -14 17
-28 -1z"/>
<path d="M3175 2059 c-4 -6 -4 -13 -1 -16 3 -4 6 -1 6 6 0 7 5 9 12 5 7 -4 8
-3 4 4 -9 15 -13 15 -21 1z"/>
<path d="M3215 2060 c-3 -6 1 -7 9 -4 18 7 21 14 7 14 -6 0 -13 -4 -16 -10z"/>
<path d="M3453 2049 c-2 -23 3 -25 10 -4 4 8 3 16 -1 19 -4 3 -9 -4 -9 -15z"/>
<path d="M3225 2039 c-4 -6 -5 -12 -2 -15 2 -3 7 2 10 11 7 17 1 20 -8 4z"/>
<path d="M3333 2035 c0 -8 4 -12 9 -9 4 3 8 9 8 15 0 5 -4 9 -8 9 -5 0 -9 -7
-9 -15z"/>
<path d="M3192 2010 c-13 -21 -42 -27 -42 -10 0 6 -4 10 -10 10 -18 0 -10 -19
11 -25 15 -5 28 -1 42 14 12 11 19 23 16 25 -3 3 -10 -4 -17 -14z"/>
<path d="M3270 2026 c0 -2 7 -7 16 -10 8 -3 12 -2 9 4 -6 10 -25 14 -25 6z"/>
<path d="M3251 2012 c-1 -7 -6 -10 -13 -6 -7 4 -8 3 -4 -5 4 -6 11 -9 16 -6 4
3 10 0 12 -7 3 -7 7 -5 11 6 4 9 3 15 -2 11 -5 -3 -12 1 -14 7 -4 10 -6 10 -6
0z"/>
<path d="M3110 1990 c6 -11 13 -20 16 -20 2 0 0 9 -6 20 -6 11 -13 20 -16 20
-2 0 0 -9 6 -20z"/>
<path d="M3214 1992 c4 -7 1 -12 -8 -12 -19 0 -21 -16 -3 -26 6 -4 9 -4 5 1
-4 4 0 13 9 20 13 9 13 14 3 20 -9 5 -11 4 -6 -3z"/>
<path d="M3535 1831 c-3 -5 -2 -12 3 -15 5 -3 9 1 9 9 0 17 -3 19 -12 6z"/>
<path d="M3555 1780 c3 -5 8 -10 11 -10 2 0 4 5 4 10 0 6 -5 10 -11 10 -5 0
-7 -4 -4 -10z"/>
<path d="M3355 1633 c2 -21 -1 -43 -6 -49 -5 -7 -4 -11 4 -11 9 0 13 16 13 49
0 26 -4 48 -8 48 -4 0 -5 -17 -3 -37z"/>
<path d="M3539 1648 c-5 -18 -6 -38 -1 -34 7 8 12 36 6 36 -2 0 -4 -1 -5 -2z"/>
<path d="M3265 1620 c-3 -6 1 -7 9 -4 18 7 21 14 7 14 -6 0 -13 -4 -16 -10z"/>
<path d="M3308 1623 c7 -3 16 -2 19 1 4 3 -2 6 -13 5 -11 0 -14 -3 -6 -6z"/>
<path d="M3427 1619 c7 -7 15 -10 18 -7 3 3 -2 9 -12 12 -14 6 -15 5 -6 -5z"/>
<path d="M3240 1601 c0 -5 7 -12 16 -15 14 -5 15 -4 4 9 -14 17 -20 19 -20 6z"/>
<path d="M3296 1599 c4 -8 30 -6 38 2 3 3 -5 5 -19 5 -13 0 -22 -3 -19 -7z"/>
<path d="M3206 1562 c-3 -5 1 -9 9 -9 8 0 15 4 15 9 0 4 -4 8 -9 8 -6 0 -12
-4 -15 -8z"/>
<path d="M3270 1560 c0 -5 5 -10 10 -10 6 0 10 5 10 10 0 6 -4 10 -10 10 -5 0
-10 -4 -10 -10z"/>
<path d="M3426 1558 c3 -4 9 -8 15 -8 5 0 9 4 9 8 0 5 -7 9 -15 9 -8 0 -12 -4
-9 -9z"/>
<path d="M3175 1551 c-6 -11 13 -26 22 -17 4 3 1 6 -6 6 -7 0 -9 5 -6 10 3 6
4 10 1 10 -3 0 -7 -4 -11 -9z"/>
<path d="M3309 1543 c-13 -16 -12 -17 4 -4 9 7 17 15 17 17 0 8 -8 3 -21 -13z"/>
<path d="M3230 1529 c-7 -11 -10 -23 -7 -25 2 -2 9 7 15 21 14 30 7 33 -8 4z"/>
<path d="M3394 1520 c0 -13 4 -16 10 -10 7 7 7 13 0 20 -6 6 -10 3 -10 -10z"/>
<path d="M3145 1508 l-20 -21 23 12 c12 6 22 16 22 21 0 13 -2 12 -25 -12z"/>
<path d="M3430 1519 c0 -5 5 -7 10 -4 6 3 10 8 10 11 0 2 -4 4 -10 4 -5 0 -10
-5 -10 -11z"/>
<path d="M3174 1498 c-5 -7 -2 -8 6 -3 10 6 12 4 6 -10 -5 -15 -4 -16 9 -5 19
15 19 16 0 23 -8 4 -17 1 -21 -5z"/>
<path d="M3315 1501 c-3 -5 -2 -12 3 -15 5 -3 9 1 9 9 0 17 -3 19 -12 6z"/>
<path d="M2975 1480 c-3 -5 -1 -10 4 -10 6 0 11 5 11 10 0 6 -2 10 -4 10 -3 0
-8 -4 -11 -10z"/>
<path d="M3030 1480 c0 -5 5 -10 10 -10 6 0 10 5 10 10 0 6 -4 10 -10 10 -5 0
-10 -4 -10 -10z"/>
<path d="M3112 1485 c4 -4 1 -13 -8 -20 -14 -10 -14 -13 3 -26 16 -13 17 -12
5 2 -10 14 -10 18 4 23 22 9 26 8 18 -6 -4 -7 -3 -8 4 -4 17 10 15 14 -10 27
-13 6 -20 8 -16 4z"/>
<path d="M3240 1486 c0 -2 8 -10 18 -17 15 -13 16 -12 3 4 -13 16 -21 21 -21
13z"/>
<path d="M2888 1454 c-11 -11 -14 -22 -8 -33 5 -9 11 -24 14 -34 3 -10 10 -15
16 -12 5 3 10 2 10 -4 0 -5 -5 -12 -10 -14 -6 -3 -5 -4 2 -3 7 2 13 9 13 17 0
8 -6 13 -12 12 -7 -2 -13 6 -13 16 0 11 -5 23 -11 26 -7 5 -4 14 7 26 21 23
15 25 -8 3z"/>
<path d="M2929 1448 c7 -20 7 -28 -2 -31 -7 -2 -5 -3 3 -3 16 2 15 34 -1 51
-7 6 -6 0 0 -17z"/>
<path d="M3055 1459 c-4 -6 -4 -13 -1 -16 3 -4 6 -1 6 6 0 7 5 9 12 5 7 -4 8
-3 4 4 -9 15 -13 15 -21 1z"/>
<path d="M3147 1445 c-16 -23 -16 -24 -1 -18 10 4 15 2 11 -4 -3 -5 0 -10 8
-10 10 0 12 4 5 12 -6 7 -8 20 -4 29 9 23 2 19 -19 -9z"/>
<path d="M2850 1449 c0 -5 -5 -7 -12 -3 -7 4 -8 3 -4 -4 10 -16 23 -15 30 3 3
8 1 15 -4 15 -6 0 -10 -5 -10 -11z"/>
<path d="M2770 1439 c0 -5 -4 -7 -10 -4 -6 3 -7 -1 -4 -10 5 -11 2 -14 -12 -9
-18 5 -18 5 -1 -6 26 -16 21 -33 -5 -19 -21 11 -22 11 -9 -5 17 -21 36 -16 37
10 1 10 5 27 9 37 4 9 4 17 1 17 -3 0 -6 -5 -6 -11z"/>
<path d="M2905 1440 c-3 -5 -1 -10 4 -10 6 0 11 5 11 10 0 6 -2 10 -4 10 -3 0
-8 -4 -11 -10z"/>
<path d="M3387 1439 c7 -7 15 -10 18 -7 3 3 -2 9 -12 12 -14 6 -15 5 -6 -5z"/>
<path d="M3070 1431 c0 -7 -5 -9 -12 -5 -7 5 -8 3 -3 -5 5 -9 10 -10 18 -2 6
6 8 14 4 18 -4 3 -7 1 -7 -6z"/>
<path d="M2820 1420 c0 -5 5 -10 11 -10 5 0 7 5 4 10 -3 6 -8 10 -11 10 -2 0
-4 -4 -4 -10z"/>
<path d="M2990 1420 c0 -5 5 -10 10 -10 6 0 10 5 10 10 0 6 -4 10 -10 10 -5 0
-10 -4 -10 -10z"/>
<path d="M3195 1421 c-3 -5 0 -13 6 -17 7 -4 9 -3 5 4 -3 5 0 13 6 15 9 4 10
6 1 6 -6 1 -14 -3 -18 -8z"/>
<path d="M2855 1410 c3 -5 0 -10 -8 -10 -8 0 -20 -7 -27 -15 -9 -10 -9 -15 -1
-15 6 0 11 4 11 9 0 5 9 11 20 14 21 5 28 27 9 27 -5 0 -7 -4 -4 -10z"/>
<path d="M2940 1400 c-18 -12 -2 -12 25 0 13 6 15 9 5 9 -8 0 -22 -4 -30 -9z"/>
<path d="M3034 1399 c-3 -6 -1 -16 5 -22 9 -9 10 -7 5 7 -6 15 -4 17 6 11 9
-5 11 -4 6 3 -9 15 -13 15 -22 1z"/>
<path d="M3082 1401 c-11 -6 -9 -9 6 -13 15 -4 19 -2 15 8 -6 16 -4 16 -21 5z"/>
<path d="M2990 1391 c0 -7 -5 -9 -12 -5 -7 5 -8 3 -3 -5 5 -9 10 -10 18 -2 6
6 8 14 4 18 -4 3 -7 1 -7 -6z"/>
<path d="M2874 1365 c2 -30 25 -81 26 -58 0 6 -4 14 -9 18 -6 3 -8 14 -6 24 2
10 -1 24 -5 31 -6 10 -8 4 -6 -15z"/>
<path d="M2710 1371 c0 -9 30 -24 36 -18 2 1 -6 8 -16 15 -11 7 -20 8 -20 3z"/>
<path d="M2769 1363 c-13 -17 -13 -17 6 -3 11 8 22 16 24 17 2 2 0 3 -6 3 -6
0 -17 -8 -24 -17z"/>
<path d="M2950 1371 c0 -5 7 -12 16 -15 14 -5 15 -4 4 9 -14 17 -20 19 -20 6z"/>
<path d="M3215 1369 c-4 -6 -5 -12 -2 -15 2 -3 7 2 10 11 7 17 1 20 -8 4z"/>
<path d="M2610 1349 c7 -11 14 -19 16 -16 7 7 -7 37 -17 37 -6 0 -5 -9 1 -21z"/>
<path d="M2650 1360 c-8 -5 -10 -10 -5 -10 6 0 17 5 25 10 8 5 11 10 5 10 -5
0 -17 -5 -25 -10z"/>
<path d="M2690 1358 c0 -9 5 -20 10 -23 13 -8 13 5 0 25 -8 13 -10 13 -10 -2z"/>
<path d="M2835 1359 c-11 -16 -1 -19 13 -3 7 8 8 14 3 14 -5 0 -13 -5 -16 -11z"/>
<path d="M2995 1360 c-3 -5 -1 -10 4 -10 6 0 11 5 11 10 0 6 -2 10 -4 10 -3 0
-8 -4 -11 -10z"/>
<path d="M3096 1353 c-6 -14 -5 -15 5 -6 7 7 10 15 7 18 -3 3 -9 -2 -12 -12z"/>
<path d="M2791 1351 c-8 -5 -16 -20 -18 -33 -2 -17 -1 -19 6 -8 5 8 7 18 5 22
-3 4 2 8 10 8 9 0 16 5 16 10 0 12 -1 12 -19 1z"/>
<path d="M3040 1356 c0 -2 7 -7 16 -10 8 -3 12 -2 9 4 -6 10 -25 14 -25 6z"/>
<path d="M2671 1340 c3 -30 -1 -41 -13 -34 -7 4 -8 3 -4 -4 10 -16 14 -15 25
6 6 12 6 23 0 33 -8 12 -10 12 -8 -1z"/>
<path d="M2960 1331 c5 -11 15 -23 21 -27 6 -3 3 5 -6 20 -20 30 -30 35 -15 7z"/>
<path d="M3026 1335 c5 -11 4 -16 -3 -12 -5 3 -10 0 -10 -8 0 -12 3 -12 16 -3
9 7 17 13 19 14 1 1 -4 7 -13 14 -13 11 -14 10 -9 -5z"/>
<path d="M3190 1341 c0 -6 4 -13 10 -16 6 -3 7 1 4 9 -7 18 -14 21 -14 7z"/>
<path d="M2715 1320 c-4 -11 -11 -17 -17 -14 -7 5 -8 2 -3 -6 6 -10 11 -9 22
5 13 19 17 35 9 35 -3 0 -8 -9 -11 -20z"/>
<path d="M2751 1324 c0 -11 3 -14 6 -6 3 7 2 16 -1 19 -3 4 -6 -2 -5 -13z"/>
<path d="M3135 1330 c-4 -6 -10 -8 -14 -6 -4 3 -8 -1 -8 -9 0 -10 4 -12 12 -5
7 5 14 8 17 5 2 -3 5 2 5 10 0 18 -3 19 -12 5z"/>
<path d="M2590 1315 c0 -8 2 -15 4 -15 2 0 6 7 10 15 3 8 1 15 -4 15 -6 0 -10
-7 -10 -15z"/>
<path d="M2635 1319 c-11 -16 -1 -19 13 -3 7 8 8 14 3 14 -5 0 -13 -5 -16 -11z"/>
<path d="M2800 1315 c-19 -22 -8 -25 13 -3 9 10 13 18 8 18 -5 0 -14 -7 -21
-15z"/>
<path d="M2920 1320 c-12 -7 -10 -9 8 -7 12 0 22 5 22 9 0 11 -12 10 -30 -2z"/>
<path d="M3069 1317 c6 -8 9 -16 6 -19 -3 -2 2 -5 10 -5 13 0 13 3 -2 19 -19
21 -31 25 -14 5z"/>
<path d="M3339 1308 c-5 -18 -6 -38 -1 -34 7 8 12 36 6 36 -2 0 -4 -1 -5 -2z"/>
<path d="M2570 1280 c0 -5 5 -10 10 -10 6 0 10 5 10 10 0 6 -4 10 -10 10 -5 0
-10 -4 -10 -10z"/>
<path d="M2636 1273 c-6 -14 -5 -15 5 -6 7 7 10 15 7 18 -3 3 -9 -2 -12 -12z"/>
<path d="M2687 1279 c7 -7 15 -10 18 -7 3 3 -2 9 -12 12 -14 6 -15 5 -6 -5z"/>
<path d="M2725 1280 c3 -5 8 -10 11 -10 2 0 4 5 4 10 0 6 -5 10 -11 10 -5 0
-7 -4 -4 -10z"/>
<path d="M2773 1275 c0 -7 7 -11 15 -7 9 3 13 1 9 -5 -3 -5 0 -10 8 -10 17 0
10 14 -14 26 -13 7 -18 6 -18 -4z"/>
<path d="M2816 1278 c3 -5 10 -6 15 -3 13 9 11 12 -6 12 -8 0 -12 -4 -9 -9z"/>
<path d="M2953 1276 c-3 -6 -3 -8 2 -4 4 4 13 3 20 -2 8 -7 12 -5 12 3 0 16
-25 18 -34 3z"/>
<path d="M3013 1273 c0 -9 4 -10 14 -2 7 6 13 12 13 14 0 1 -6 2 -13 2 -8 0
-14 -6 -14 -14z"/>
<path d="M3126 1278 c3 -5 10 -6 15 -3 13 9 11 12 -6 12 -8 0 -12 -4 -9 -9z"/>
<path d="M2910 1276 c0 -2 8 -10 18 -17 15 -13 16 -12 3 4 -13 16 -21 21 -21
13z"/>
<path d="M2668 1263 c6 -2 9 -10 6 -15 -4 -7 -2 -8 5 -4 13 9 5 26 -12 25 -9
0 -8 -2 1 -6z"/>
<path d="M2510 1245 c0 -8 4 -15 8 -15 5 0 9 7 9 15 0 8 -4 15 -9 15 -4 0 -8
-7 -8 -15z"/>
<path d="M2893 1247 c0 -7 9 -14 20 -14 11 -1 18 -1 16 0 -2 2 -11 8 -20 15
-12 9 -16 9 -16 -1z"/>
<path d="M2751 1247 c2 -1 13 -9 24 -17 19 -14 19 -14 6 3 -7 9 -18 17 -24 17
-6 0 -8 -1 -6 -3z"/>
<path d="M3050 1239 c0 -5 5 -7 10 -4 6 3 10 8 10 11 0 2 -4 4 -10 4 -5 0 -10
-5 -10 -11z"/>
<path d="M3246 1242 c-3 -5 1 -9 9 -9 8 0 12 4 9 9 -3 4 -7 8 -9 8 -2 0 -6 -4
-9 -8z"/>
<path d="M2549 1223 c-13 -16 -12 -17 4 -4 9 7 17 15 17 17 0 8 -8 3 -21 -13z"/>
<path d="M2464 1222 c4 -3 14 -7 22 -8 9 -1 13 0 10 4 -4 3 -14 7 -22 8 -9 1
-13 0 -10 -4z"/>
<path d="M2630 1216 c7 -7 13 -7 20 0 6 6 3 10 -10 10 -13 0 -16 -4 -10 -10z"/>
<path d="M2569 1203 c-13 -16 -12 -17 4 -4 9 7 17 15 17 17 0 8 -8 3 -21 -13z"/>
<path d="M2703 1204 c9 -11 15 -24 12 -27 -3 -4 -2 -5 2 -2 4 3 8 13 9 21 1 9
0 13 -3 10 -4 -3 -13 0 -22 6 -12 10 -12 7 2 -8z"/>
<path d="M2394 1184 c1 -13 4 -26 8 -29 3 -3 5 5 4 17 -1 16 4 22 14 20 8 -2
11 0 7 4 -17 17 -34 11 -33 -12z"/>
<path d="M2999 1193 c-13 -16 -12 -17 4 -4 16 13 21 21 13 21 -2 0 -10 -8 -17
-17z"/>
<path d="M3170 1200 c0 -5 5 -10 11 -10 5 0 7 5 4 10 -3 6 -8 10 -11 10 -2 0
-4 -4 -4 -10z"/>
<path d="M3466 1202 c-2 -4 4 -8 14 -8 10 0 16 4 14 8 -3 4 -9 8 -14 8 -5 0
-11 -4 -14 -8z"/>
<path d="M3050 1179 c0 -5 5 -7 10 -4 6 3 10 8 10 11 0 2 -4 4 -10 4 -5 0 -10
-5 -10 -11z"/>
<path d="M3086 1182 c-3 -5 1 -9 9 -9 8 0 12 4 9 9 -3 4 -7 8 -9 8 -2 0 -6 -4
-9 -8z"/>
<path d="M2427 1159 c7 -7 15 -10 18 -7 3 3 -2 9 -12 12 -14 6 -15 5 -6 -5z"/>
<path d="M2470 1156 c7 -7 13 -7 20 0 6 6 3 10 -10 10 -13 0 -16 -4 -10 -10z"/>
<path d="M2515 1161 c-3 -5 -2 -12 3 -15 5 -3 9 1 9 9 0 17 -3 19 -12 6z"/>
<path d="M2545 1160 c-3 -6 1 -7 9 -4 18 7 21 14 7 14 -6 0 -13 -4 -16 -10z"/>
<path d="M2775 1160 c3 -5 8 -10 11 -10 2 0 4 5 4 10 0 6 -5 10 -11 10 -5 0
-7 -4 -4 -10z"/>
<path d="M2330 1139 c0 -5 5 -7 10 -4 6 3 10 8 10 11 0 2 -4 4 -10 4 -5 0 -10
-5 -10 -11z"/>
<path d="M3053 1135 c0 -8 4 -12 9 -9 5 3 6 10 3 15 -9 13 -12 11 -12 -6z"/>
<path d="M2466 1121 c-14 -15 -15 -21 -4 -27 7 -4 10 -3 5 1 -4 5 0 17 10 27
9 10 14 18 11 18 -3 0 -13 -9 -22 -19z"/>
<path d="M2715 1121 c-3 -5 -2 -12 3 -15 5 -3 9 1 9 9 0 17 -3 19 -12 6z"/>
<path d="M2570 1099 c0 -5 5 -7 10 -4 6 3 10 8 10 11 0 2 -4 4 -10 4 -5 0 -10
-5 -10 -11z"/>
<path d="M2915 1100 c-3 -5 -1 -10 4 -10 6 0 11 5 11 10 0 6 -2 10 -4 10 -3 0
-8 -4 -11 -10z"/>
<path d="M2606 1082 c-3 -5 1 -9 9 -9 8 0 12 4 9 9 -3 4 -7 8 -9 8 -2 0 -6 -4
-9 -8z"/>
<path d="M2816 1082 c-3 -5 1 -9 9 -9 8 0 12 4 9 9 -3 4 -7 8 -9 8 -2 0 -6 -4
-9 -8z"/>
<path d="M2675 1060 c3 -5 8 -10 11 -10 2 0 4 5 4 10 0 6 -5 10 -11 10 -5 0
-7 -4 -4 -10z"/>
<path d="M2275 1041 c-3 -5 -2 -12 3 -15 5 -3 9 1 9 9 0 17 -3 19 -12 6z"/>
<path d="M2387 999 c7 -7 15 -10 18 -7 3 3 -2 9 -12 12 -14 6 -15 5 -6 -5z"/>
<path d="M2733 955 c0 -8 4 -12 9 -9 5 3 6 10 3 15 -9 13 -12 11 -12 -6z"/>
</g>
</svg>
